<?xml version='1.0' encoding='UTF-8'?>
<mxfile host="Electron" version="25.0.2">
  <diagram name="Hub and Spoke Topology">
    <mxGraphModel dx="371" dy="1462" grid="0" gridSize="10" guides="1" tooltips="1" connect="1" arrows="1" fold="1" page="0" pageScale="1" pageWidth="827" pageHeight="1169" background="#ffffff" math="0" shadow="0">
      <root>
        <mxCell id="0"/>
        <mxCell id="1" parent="0"/>
        <mxCell id="hub_0_group" value="" style="group" vertex="1" connectable="0" parent="1">
          <mxGeometry x="470" y="20" width="400" height="195" as="geometry"/>
        </mxCell>
        <mxCell id="hub_0" style="shape=rectangle;rounded=0;whiteSpace=wrap;html=1;strokeColor=#0078D4;fontColor=#004578;fillColor=#E6F1FB;verticalAlign=top;align=left" vertex="1" parent="hub_0_group" value="Subscription: Hub-Subscription&#10;hub-vnet&#10;10.0.0.0/16">
          <mxGeometry x="0" y="0" width="400" height="175" as="geometry"/>
        </mxCell>
        <mxCell id="hub_0_image" style="shape=image;html=1;image=img/lib/azure2/networking/Virtual_Networks.svg;" vertex="1" parent="hub_0">
          <mxGeometry x="374" y="3.39" width="20" height="20" as="geometry"/>
        </mxCell>
        <mxCell id="hub_0_expressroute_image" style="shape=image;html=1;image=img/lib/azure2/networking/ExpressRoute_Circuits.svg;" vertex="1" parent="hub_0">
          <mxGeometry x="349" y="3.39" width="20" height="20" as="geometry"/>
        </mxCell>
        <mxCell id="hub_0_firewall_image" style="shape=image;html=1;image=img/lib/azure2/networking/Firewalls.svg;" vertex="1" parent="hub_0">
          <mxGeometry x="324" y="3.39" width="20" height="20" as="geometry"/>
        </mxCell>
        <mxCell id="hub_0_vpn_image" style="shape=image;html=1;image=img/lib/azure2/networking/Virtual_Network_Gateways.svg;" vertex="1" parent="hub_0">
          <mxGeometry x="299" y="3.39" width="20" height="20" as="geometry"/>
        </mxCell>
        <mxCell id="hub_0_subnet_0" style="shape=rectangle;rounded=0;whiteSpace=wrap;html=1;strokeColor=#C8C6C4;fontColor=#323130;fillColor=#FAF9F8;align=left" vertex="1" parent="hub_0" value="default 10.0.1.0/24">
          <mxGeometry x="25" y="55" width="350" height="20" as="geometry"/>
        </mxCell>
        <mxCell id="hub_0_subnet_0_icon" style="shape=image;html=1;image=img/lib/azure2/networking/Subnet.svg;" vertex="1" parent="hub_0">
          <mxGeometry x="355" y="58" width="20" height="12" as="geometry"/>
        </mxCell>
        <mxCell id="hub_0_subnet_0_nsg" style="shape=image;html=1;image=img/lib/azure2/networking/Network_Security_Groups.svg;" vertex="1" parent="hub_0">
          <mxGeometry x="336" y="57" width="16" height="16" as="geometry"/>
        </mxCell>
        <mxCell id="hub_0_subnet_1" style="shape=rectangle;rounded=0;whiteSpace=wrap;html=1;strokeColor=#C8C6C4;fontColor=#323130;fillColor=#FAF9F8;align=left" vertex="1" parent="hub_0" value="GatewaySubnet 10.0.2.0/24">
          <mxGeometry x="25" y="85" width="350" height="20" as="geometry"/>
        </mxCell>
        <mxCell id="hub_0_subnet_1_icon" style="shape=image;html=1;image=img/lib/azure2/networking/Subnet.svg;" vertex="1" parent="hub_0">
          <mxGeometry x="355" y="88" width="20" height="12" as="geometry"/>
        </mxCell>
        <mxCell id="hub_0_subnet_1_udr" style="shape=image;html=1;image=img/lib/azure2/networking/Route_Tables.svg;" vertex="1" parent="hub_0">
          <mxGeometry x="336" y="87" width="16" height="16" as="geometry"/>
        </mxCell>
        <mxCell id="hub_0_subnet_2" style="shape=rectangle;rounded=0;whiteSpace=wrap;html=1;strokeColor=#C8C6C4;fontColor=#323130;fillColor=#FAF9F8;align=left" vertex="1" parent="hub_0" value="AzureFirewallSubnet 10.0.3.0/24">
          <mxGeometry x="25" y="115" width="350" height="20" as="geometry"/>
        </mxCell>
        <mxCell id="hub_0_subnet_2_icon" style="shape=image;html=1;image=img/lib/azure2/networking/Subnet.svg;" vertex="1" parent="hub_0">
          <mxGeometry x="355" y="118" width="20" height="12" as="geometry"/>
        </mxCell>
        <mxCell id="hub_0_subnet_3" style="shape=rectangle;rounded=0;whiteSpace=wrap;html=1;strokeColor=#C8C6C4;fontColor=#323130;fillColor=#FAF9F8;align=left" vertex="1" parent="hub_0" value="management 10.0.4.0/24">
          <mxGeometry x="25" y="145" width="350" height="20" as="geometry"/>
        </mxCell>
        <mxCell id="hub_0_subnet_3_icon" style="shape=image;html=1;image=img/lib/azure2/networking/Subnet.svg;" vertex="1" parent="hub_0">
          <mxGeometry x="355" y="148" width="20" height="12" as="geometry"/>
        </mxCell>
        <mxCell id="hub_0_subnet_3_udr" style="shape=image;html=1;image=img/lib/azure2/networking/Route_Tables.svg;" vertex="1" parent="hub_0">
          <mxGeometry x="336" y="147" width="16" height="16" as="geometry"/>
        </mxCell>
        <mxCell id="hub_0_subnet_3_nsg" style="shape=image;html=1;image=img/lib/azure2/networking/Network_Security_Groups.svg;" vertex="1" parent="hub_0">
          <mxGeometry x="317" y="147" width="16" height="16" as="geometry"/>
        </mxCell>
        <mxCell id="right_spoke0_0_group" value="" style="group" vertex="1" connectable="0" parent="1">
          <mxGeometry x="920" y="195" width="400" height="105" as="geometry"/>
        </mxCell>
        <mxCell id="right_spoke0_0" style="shape=rectangle;rounded=0;whiteSpace=wrap;html=1;strokeColor=#CC6600;fontColor=#CC6600;fillColor=#f2f7fc;verticalAlign=top;align=left" vertex="1" parent="right_spoke0_0_group" value="Subscription: Spoke11-Subscription&#10;spoke11-vnet&#10;10.11.0.0/16">
          <mxGeometry x="0" y="0" width="400" height="85" as="geometry"/>
        </mxCell>
        <mxCell id="right_spoke0_0_image" style="shape=image;html=1;image=img/lib/azure2/networking/Virtual_Networks.svg;" vertex="1" parent="right_spoke0_0">
          <mxGeometry x="374" y="3.39" width="20" height="20" as="geometry"/>
        </mxCell>
        <mxCell id="right_spoke0_0_subnet_0" style="shape=rectangle;rounded=0;whiteSpace=wrap;html=1;strokeColor=#C8C6C4;fontColor=#323130;fillColor=#FAF9F8;align=left" vertex="1" parent="right_spoke0_0" value="backup 10.11.1.0/24">
          <mxGeometry x="25" y="55" width="350" height="20" as="geometry"/>
        </mxCell>
        <mxCell id="right_spoke0_0_subnet_0_icon" style="shape=image;html=1;image=img/lib/azure2/networking/Subnet.svg;" vertex="1" parent="right_spoke0_0">
          <mxGeometry x="355" y="58" width="20" height="12" as="geometry"/>
        </mxCell>
        <mxCell id="right_spoke0_0_subnet_0_udr" style="shape=image;html=1;image=img/lib/azure2/networking/Route_Tables.svg;" vertex="1" parent="right_spoke0_0">
          <mxGeometry x="336" y="57" width="16" height="16" as="geometry"/>
        </mxCell>
        <mxCell id="right_spoke0_0_subnet_0_nsg" style="shape=image;html=1;image=img/lib/azure2/networking/Network_Security_Groups.svg;" vertex="1" parent="right_spoke0_0">
          <mxGeometry x="317" y="57" width="16" height="16" as="geometry"/>
        </mxCell>
        <mxCell id="edge_right_0_0_spoke11-vnet" edge="1" source="hub_0" target="right_spoke0_0" style="edgeStyle=orthogonalEdgeStyle;rounded=1;strokeColor=#0078D4;strokeWidth=2;endArrow=block;startArrow=block;" parent="1">
          <mxGeometry relative="1" as="geometry">
            <Array as="points">
              <mxPoint x="770" y="220"/>
            </Array>
          </mxGeometry>
        </mxCell>
        <mxCell id="right_spoke0_1_group" value="" style="group" vertex="1" connectable="0" parent="1">
          <mxGeometry x="920" y="320" width="400" height="105" as="geometry"/>
        </mxCell>
        <mxCell id="right_spoke0_1" style="shape=rectangle;rounded=0;whiteSpace=wrap;html=1;strokeColor=#CC6600;fontColor=#CC6600;fillColor=#f2f7fc;verticalAlign=top;align=left" vertex="1" parent="right_spoke0_1_group" value="Subscription: Spoke12-Subscription&#10;spoke12-vnet&#10;10.12.0.0/16">
          <mxGeometry x="0" y="0" width="400" height="85" as="geometry"/>
        </mxCell>
        <mxCell id="right_spoke0_1_image" style="shape=image;html=1;image=img/lib/azure2/networking/Virtual_Networks.svg;" vertex="1" parent="right_spoke0_1">
          <mxGeometry x="374" y="3.39" width="20" height="20" as="geometry"/>
        </mxCell>
        <mxCell id="right_spoke0_1_firewall_image" style="shape=image;html=1;image=img/lib/azure2/networking/Firewalls.svg;" vertex="1" parent="right_spoke0_1">
          <mxGeometry x="349" y="3.39" width="20" height="20" as="geometry"/>
        </mxCell>
        <mxCell id="right_spoke0_1_subnet_0" style="shape=rectangle;rounded=0;whiteSpace=wrap;html=1;strokeColor=#C8C6C4;fontColor=#323130;fillColor=#FAF9F8;align=left" vertex="1" parent="right_spoke0_1" value="security 10.12.1.0/24">
          <mxGeometry x="25" y="55" width="350" height="20" as="geometry"/>
        </mxCell>
        <mxCell id="right_spoke0_1_subnet_0_icon" style="shape=image;html=1;image=img/lib/azure2/networking/Subnet.svg;" vertex="1" parent="right_spoke0_1">
          <mxGeometry x="355" y="58" width="20" height="12" as="geometry"/>
        </mxCell>
        <mxCell id="right_spoke0_1_subnet_0_udr" style="shape=image;html=1;image=img/lib/azure2/networking/Route_Tables.svg;" vertex="1" parent="right_spoke0_1">
          <mxGeometry x="336" y="57" width="16" height="16" as="geometry"/>
        </mxCell>
        <mxCell id="right_spoke0_1_subnet_0_nsg" style="shape=image;html=1;image=img/lib/azure2/networking/Network_Security_Groups.svg;" vertex="1" parent="right_spoke0_1">
          <mxGeometry x="317" y="57" width="16" height="16" as="geometry"/>
        </mxCell>
        <mxCell id="edge_right_0_1_spoke12-vnet" edge="1" source="hub_0" target="right_spoke0_1" style="edgeStyle=orthogonalEdgeStyle;rounded=1;strokeColor=#0078D4;strokeWidth=2;endArrow=block;startArrow=block;" parent="1">
          <mxGeometry relative="1" as="geometry">
            <Array as="points">
              <mxPoint x="770" y="345"/>
            </Array>
          </mxGeometry>
        </mxCell>
        <mxCell id="right_spoke0_2_group" value="" style="group" vertex="1" connectable="0" parent="1">
          <mxGeometry x="920" y="445" width="400" height="135" as="geometry"/>
        </mxCell>
        <mxCell id="right_spoke0_2" style="shape=rectangle;rounded=0;whiteSpace=wrap;html=1;strokeColor=#CC6600;fontColor=#CC6600;fillColor=#f2f7fc;verticalAlign=top;align=left" vertex="1" parent="right_spoke0_2_group" value="Subscription: Spoke13-Subscription&#10;spoke13-vnet&#10;10.13.0.0/16">
          <mxGeometry x="0" y="0" width="400" height="115" as="geometry"/>
        </mxCell>
        <mxCell id="right_spoke0_2_image" style="shape=image;html=1;image=img/lib/azure2/networking/Virtual_Networks.svg;" vertex="1" parent="right_spoke0_2">
          <mxGeometry x="374" y="3.39" width="20" height="20" as="geometry"/>
        </mxCell>
        <mxCell id="right_spoke0_2_subnet_0" style="shape=rectangle;rounded=0;whiteSpace=wrap;html=1;strokeColor=#C8C6C4;fontColor=#323130;fillColor=#FAF9F8;align=left" vertex="1" parent="right_spoke0_2" value="devops 10.13.1.0/24">
          <mxGeometry x="25" y="55" width="350" height="20" as="geometry"/>
        </mxCell>
        <mxCell id="right_spoke0_2_subnet_0_icon" style="shape=image;html=1;image=img/lib/azure2/networking/Subnet.svg;" vertex="1" parent="right_spoke0_2">
          <mxGeometry x="355" y="58" width="20" height="12" as="geometry"/>
        </mxCell>
        <mxCell id="right_spoke0_2_subnet_0_nsg" style="shape=image;html=1;image=img/lib/azure2/networking/Network_Security_Groups.svg;" vertex="1" parent="right_spoke0_2">
          <mxGeometry x="336" y="57" width="16" height="16" as="geometry"/>
        </mxCell>
        <mxCell id="right_spoke0_2_subnet_1" style="shape=rectangle;rounded=0;whiteSpace=wrap;html=1;strokeColor=#C8C6C4;fontColor=#323130;fillColor=#FAF9F8;align=left" vertex="1" parent="right_spoke0_2" value="ci-cd 10.13.2.0/24">
          <mxGeometry x="25" y="85" width="350" height="20" as="geometry"/>
        </mxCell>
        <mxCell id="right_spoke0_2_subnet_1_icon" style="shape=image;html=1;image=img/lib/azure2/networking/Subnet.svg;" vertex="1" parent="right_spoke0_2">
          <mxGeometry x="355" y="88" width="20" height="12" as="geometry"/>
        </mxCell>
        <mxCell id="right_spoke0_2_subnet_1_udr" style="shape=image;html=1;image=img/lib/azure2/networking/Route_Tables.svg;" vertex="1" parent="right_spoke0_2">
          <mxGeometry x="336" y="87" width="16" height="16" as="geometry"/>
        </mxCell>
        <mxCell id="edge_right_0_2_spoke13-vnet" edge="1" source="hub_0" target="right_spoke0_2" style="edgeStyle=orthogonalEdgeStyle;rounded=1;strokeColor=#0078D4;strokeWidth=2;endArrow=block;startArrow=block;" parent="1">
          <mxGeometry relative="1" as="geometry">
            <Array as="points">
              <mxPoint x="770" y="470"/>
            </Array>
          </mxGeometry>
        </mxCell>
        <mxCell id="right_spoke0_3_group" value="" style="group" vertex="1" connectable="0" parent="1">
          <mxGeometry x="920" y="600" width="400" height="105" as="geometry"/>
        </mxCell>
        <mxCell id="right_spoke0_3" style="shape=rectangle;rounded=0;whiteSpace=wrap;html=1;strokeColor=#CC6600;fontColor=#CC6600;fillColor=#f2f7fc;verticalAlign=top;align=left" vertex="1" parent="right_spoke0_3_group" value="Subscription: Spoke14-Subscription&#10;spoke14-vnet&#10;10.14.0.0/16">
          <mxGeometry x="0" y="0" width="400" height="85" as="geometry"/>
        </mxCell>
        <mxCell id="right_spoke0_3_image" style="shape=image;html=1;image=img/lib/azure2/networking/Virtual_Networks.svg;" vertex="1" parent="right_spoke0_3">
          <mxGeometry x="374" y="3.39" width="20" height="20" as="geometry"/>
        </mxCell>
        <mxCell id="right_spoke0_3_subnet_0" style="shape=rectangle;rounded=0;whiteSpace=wrap;html=1;strokeColor=#C8C6C4;fontColor=#323130;fillColor=#FAF9F8;align=left" vertex="1" parent="right_spoke0_3" value="testing 10.14.1.0/24">
          <mxGeometry x="25" y="55" width="350" height="20" as="geometry"/>
        </mxCell>
        <mxCell id="right_spoke0_3_subnet_0_icon" style="shape=image;html=1;image=img/lib/azure2/networking/Subnet.svg;" vertex="1" parent="right_spoke0_3">
          <mxGeometry x="355" y="58" width="20" height="12" as="geometry"/>
        </mxCell>
        <mxCell id="right_spoke0_3_subnet_0_udr" style="shape=image;html=1;image=img/lib/azure2/networking/Route_Tables.svg;" vertex="1" parent="right_spoke0_3">
          <mxGeometry x="336" y="57" width="16" height="16" as="geometry"/>
        </mxCell>
        <mxCell id="right_spoke0_3_subnet_0_nsg" style="shape=image;html=1;image=img/lib/azure2/networking/Network_Security_Groups.svg;" vertex="1" parent="right_spoke0_3">
          <mxGeometry x="317" y="57" width="16" height="16" as="geometry"/>
        </mxCell>
        <mxCell id="edge_right_0_3_spoke14-vnet" edge="1" source="hub_0" target="right_spoke0_3" style="edgeStyle=orthogonalEdgeStyle;rounded=1;strokeColor=#0078D4;strokeWidth=2;endArrow=block;startArrow=block;" parent="1">
          <mxGeometry relative="1" as="geometry">
            <Array as="points">
              <mxPoint x="770" y="625"/>
            </Array>
          </mxGeometry>
        </mxCell>
        <mxCell id="right_spoke0_4_group" value="" style="group" vertex="1" connectable="0" parent="1">
          <mxGeometry x="920" y="725" width="400" height="105" as="geometry"/>
        </mxCell>
        <mxCell id="right_spoke0_4" style="shape=rectangle;rounded=0;whiteSpace=wrap;html=1;strokeColor=#CC6600;fontColor=#CC6600;fillColor=#f2f7fc;verticalAlign=top;align=left" vertex="1" parent="right_spoke0_4_group" value="Subscription: Spoke15-Subscription&#10;spoke15-vnet&#10;10.15.0.0/16">
          <mxGeometry x="0" y="0" width="400" height="85" as="geometry"/>
        </mxCell>
        <mxCell id="right_spoke0_4_image" style="shape=image;html=1;image=img/lib/azure2/networking/Virtual_Networks.svg;" vertex="1" parent="right_spoke0_4">
          <mxGeometry x="374" y="3.39" width="20" height="20" as="geometry"/>
        </mxCell>
        <mxCell id="right_spoke0_4_subnet_0" style="shape=rectangle;rounded=0;whiteSpace=wrap;html=1;strokeColor=#C8C6C4;fontColor=#323130;fillColor=#FAF9F8;align=left" vertex="1" parent="right_spoke0_4" value="staging 10.15.1.0/24">
          <mxGeometry x="25" y="55" width="350" height="20" as="geometry"/>
        </mxCell>
        <mxCell id="right_spoke0_4_subnet_0_icon" style="shape=image;html=1;image=img/lib/azure2/networking/Subnet.svg;" vertex="1" parent="right_spoke0_4">
          <mxGeometry x="355" y="58" width="20" height="12" as="geometry"/>
        </mxCell>
        <mxCell id="right_spoke0_4_subnet_0_nsg" style="shape=image;html=1;image=img/lib/azure2/networking/Network_Security_Groups.svg;" vertex="1" parent="right_spoke0_4">
          <mxGeometry x="336" y="57" width="16" height="16" as="geometry"/>
        </mxCell>
        <mxCell id="edge_right_0_4_spoke15-vnet" edge="1" source="hub_0" target="right_spoke0_4" style="edgeStyle=orthogonalEdgeStyle;rounded=1;strokeColor=#0078D4;strokeWidth=2;endArrow=block;startArrow=block;" parent="1">
          <mxGeometry relative="1" as="geometry">
            <Array as="points">
              <mxPoint x="770" y="750"/>
            </Array>
          </mxGeometry>
        </mxCell>
        <mxCell id="right_spoke0_5_group" value="" style="group" vertex="1" connectable="0" parent="1">
          <mxGeometry x="920" y="850" width="400" height="135" as="geometry"/>
        </mxCell>
        <mxCell id="right_spoke0_5" style="shape=rectangle;rounded=0;whiteSpace=wrap;html=1;strokeColor=#CC6600;fontColor=#CC6600;fillColor=#f2f7fc;verticalAlign=top;align=left" vertex="1" parent="right_spoke0_5_group" value="Subscription: Spoke16-Subscription&#10;spoke16-vnet&#10;10.16.0.0/16">
          <mxGeometry x="0" y="0" width="400" height="115" as="geometry"/>
        </mxCell>
        <mxCell id="right_spoke0_5_image" style="shape=image;html=1;image=img/lib/azure2/networking/Virtual_Networks.svg;" vertex="1" parent="right_spoke0_5">
          <mxGeometry x="374" y="3.39" width="20" height="20" as="geometry"/>
        </mxCell>
        <mxCell id="right_spoke0_5_subnet_0" style="shape=rectangle;rounded=0;whiteSpace=wrap;html=1;strokeColor=#C8C6C4;fontColor=#323130;fillColor=#FAF9F8;align=left" vertex="1" parent="right_spoke0_5" value="production 10.16.1.0/24">
          <mxGeometry x="25" y="55" width="350" height="20" as="geometry"/>
        </mxCell>
        <mxCell id="right_spoke0_5_subnet_0_icon" style="shape=image;html=1;image=img/lib/azure2/networking/Subnet.svg;" vertex="1" parent="right_spoke0_5">
          <mxGeometry x="355" y="58" width="20" height="12" as="geometry"/>
        </mxCell>
        <mxCell id="right_spoke0_5_subnet_0_udr" style="shape=image;html=1;image=img/lib/azure2/networking/Route_Tables.svg;" vertex="1" parent="right_spoke0_5">
          <mxGeometry x="336" y="57" width="16" height="16" as="geometry"/>
        </mxCell>
        <mxCell id="right_spoke0_5_subnet_0_nsg" style="shape=image;html=1;image=img/lib/azure2/networking/Network_Security_Groups.svg;" vertex="1" parent="right_spoke0_5">
          <mxGeometry x="317" y="57" width="16" height="16" as="geometry"/>
        </mxCell>
        <mxCell id="right_spoke0_5_subnet_1" style="shape=rectangle;rounded=0;whiteSpace=wrap;html=1;strokeColor=#C8C6C4;fontColor=#323130;fillColor=#FAF9F8;align=left" vertex="1" parent="right_spoke0_5" value="maintenance 10.16.2.0/24">
          <mxGeometry x="25" y="85" width="350" height="20" as="geometry"/>
        </mxCell>
        <mxCell id="right_spoke0_5_subnet_1_icon" style="shape=image;html=1;image=img/lib/azure2/networking/Subnet.svg;" vertex="1" parent="right_spoke0_5">
          <mxGeometry x="355" y="88" width="20" height="12" as="geometry"/>
        </mxCell>
        <mxCell id="right_spoke0_5_subnet_1_udr" style="shape=image;html=1;image=img/lib/azure2/networking/Route_Tables.svg;" vertex="1" parent="right_spoke0_5">
          <mxGeometry x="336" y="87" width="16" height="16" as="geometry"/>
        </mxCell>
        <mxCell id="edge_right_0_5_spoke16-vnet" edge="1" source="hub_0" target="right_spoke0_5" style="edgeStyle=orthogonalEdgeStyle;rounded=1;strokeColor=#0078D4;strokeWidth=2;endArrow=block;startArrow=block;" parent="1">
          <mxGeometry relative="1" as="geometry">
            <Array as="points">
              <mxPoint x="770" y="875"/>
            </Array>
          </mxGeometry>
        </mxCell>
        <mxCell id="right_spoke0_6_group" value="" style="group" vertex="1" connectable="0" parent="1">
          <mxGeometry x="920" y="1005" width="400" height="105" as="geometry"/>
        </mxCell>
        <mxCell id="right_spoke0_6" style="shape=rectangle;rounded=0;whiteSpace=wrap;html=1;strokeColor=#CC6600;fontColor=#CC6600;fillColor=#f2f7fc;verticalAlign=top;align=left" vertex="1" parent="right_spoke0_6_group" value="Subscription: Spoke17-Subscription&#10;spoke17-vnet&#10;10.17.0.0/16">
          <mxGeometry x="0" y="0" width="400" height="85" as="geometry"/>
        </mxCell>
        <mxCell id="right_spoke0_6_image" style="shape=image;html=1;image=img/lib/azure2/networking/Virtual_Networks.svg;" vertex="1" parent="right_spoke0_6">
          <mxGeometry x="374" y="3.39" width="20" height="20" as="geometry"/>
        </mxCell>
        <mxCell id="right_spoke0_6_subnet_0" style="shape=rectangle;rounded=0;whiteSpace=wrap;html=1;strokeColor=#C8C6C4;fontColor=#323130;fillColor=#FAF9F8;align=left" vertex="1" parent="right_spoke0_6" value="ml-training 10.17.1.0/24">
          <mxGeometry x="25" y="55" width="350" height="20" as="geometry"/>
        </mxCell>
        <mxCell id="right_spoke0_6_subnet_0_icon" style="shape=image;html=1;image=img/lib/azure2/networking/Subnet.svg;" vertex="1" parent="right_spoke0_6">
          <mxGeometry x="355" y="58" width="20" height="12" as="geometry"/>
        </mxCell>
        <mxCell id="right_spoke0_6_subnet_0_udr" style="shape=image;html=1;image=img/lib/azure2/networking/Route_Tables.svg;" vertex="1" parent="right_spoke0_6">
          <mxGeometry x="336" y="57" width="16" height="16" as="geometry"/>
        </mxCell>
        <mxCell id="right_spoke0_6_subnet_0_nsg" style="shape=image;html=1;image=img/lib/azure2/networking/Network_Security_Groups.svg;" vertex="1" parent="right_spoke0_6">
          <mxGeometry x="317" y="57" width="16" height="16" as="geometry"/>
        </mxCell>
        <mxCell id="edge_right_0_6_spoke17-vnet" edge="1" source="hub_0" target="right_spoke0_6" style="edgeStyle=orthogonalEdgeStyle;rounded=1;strokeColor=#0078D4;strokeWidth=2;endArrow=block;startArrow=block;" parent="1">
          <mxGeometry relative="1" as="geometry">
            <Array as="points">
              <mxPoint x="770" y="1030"/>
            </Array>
          </mxGeometry>
        </mxCell>
        <mxCell id="right_spoke0_7_group" value="" style="group" vertex="1" connectable="0" parent="1">
          <mxGeometry x="920" y="1130" width="400" height="105" as="geometry"/>
        </mxCell>
        <mxCell id="right_spoke0_7" style="shape=rectangle;rounded=0;whiteSpace=wrap;html=1;strokeColor=#CC6600;fontColor=#CC6600;fillColor=#f2f7fc;verticalAlign=top;align=left" vertex="1" parent="right_spoke0_7_group" value="Subscription: Spoke18-Subscription&#10;spoke18-vnet&#10;10.18.0.0/16">
          <mxGeometry x="0" y="0" width="400" height="85" as="geometry"/>
        </mxCell>
        <mxCell id="right_spoke0_7_image" style="shape=image;html=1;image=img/lib/azure2/networking/Virtual_Networks.svg;" vertex="1" parent="right_spoke0_7">
          <mxGeometry x="374" y="3.39" width="20" height="20" as="geometry"/>
        </mxCell>
        <mxCell id="right_spoke0_7_subnet_0" style="shape=rectangle;rounded=0;whiteSpace=wrap;html=1;strokeColor=#C8C6C4;fontColor=#323130;fillColor=#FAF9F8;align=left" vertex="1" parent="right_spoke0_7" value="data-lake 10.18.1.0/24">
          <mxGeometry x="25" y="55" width="350" height="20" as="geometry"/>
        </mxCell>
        <mxCell id="right_spoke0_7_subnet_0_icon" style="shape=image;html=1;image=img/lib/azure2/networking/Subnet.svg;" vertex="1" parent="right_spoke0_7">
          <mxGeometry x="355" y="58" width="20" height="12" as="geometry"/>
        </mxCell>
        <mxCell id="right_spoke0_7_subnet_0_udr" style="shape=image;html=1;image=img/lib/azure2/networking/Route_Tables.svg;" vertex="1" parent="right_spoke0_7">
          <mxGeometry x="336" y="57" width="16" height="16" as="geometry"/>
        </mxCell>
        <mxCell id="edge_right_0_7_spoke18-vnet" edge="1" source="hub_0" target="right_spoke0_7" style="edgeStyle=orthogonalEdgeStyle;rounded=1;strokeColor=#0078D4;strokeWidth=2;endArrow=block;startArrow=block;" parent="1">
          <mxGeometry relative="1" as="geometry">
            <Array as="points">
              <mxPoint x="770" y="1155"/>
            </Array>
          </mxGeometry>
        </mxCell>
        <mxCell id="right_spoke0_8_group" value="" style="group" vertex="1" connectable="0" parent="1">
          <mxGeometry x="920" y="1255" width="400" height="135" as="geometry"/>
        </mxCell>
        <mxCell id="right_spoke0_8" style="shape=rectangle;rounded=0;whiteSpace=wrap;html=1;strokeColor=#CC6600;fontColor=#CC6600;fillColor=#f2f7fc;verticalAlign=top;align=left" vertex="1" parent="right_spoke0_8_group" value="Subscription: Spoke19-Subscription&#10;spoke19-vnet&#10;10.19.0.0/16">
          <mxGeometry x="0" y="0" width="400" height="115" as="geometry"/>
        </mxCell>
        <mxCell id="right_spoke0_8_image" style="shape=image;html=1;image=img/lib/azure2/networking/Virtual_Networks.svg;" vertex="1" parent="right_spoke0_8">
          <mxGeometry x="374" y="3.39" width="20" height="20" as="geometry"/>
        </mxCell>
        <mxCell id="right_spoke0_8_subnet_0" style="shape=rectangle;rounded=0;whiteSpace=wrap;html=1;strokeColor=#C8C6C4;fontColor=#323130;fillColor=#FAF9F8;align=left" vertex="1" parent="right_spoke0_8" value="iot-hub 10.19.1.0/24">
          <mxGeometry x="25" y="55" width="350" height="20" as="geometry"/>
        </mxCell>
        <mxCell id="right_spoke0_8_subnet_0_icon" style="shape=image;html=1;image=img/lib/azure2/networking/Subnet.svg;" vertex="1" parent="right_spoke0_8">
          <mxGeometry x="355" y="58" width="20" height="12" as="geometry"/>
        </mxCell>
        <mxCell id="right_spoke0_8_subnet_0_nsg" style="shape=image;html=1;image=img/lib/azure2/networking/Network_Security_Groups.svg;" vertex="1" parent="right_spoke0_8">
          <mxGeometry x="336" y="57" width="16" height="16" as="geometry"/>
        </mxCell>
        <mxCell id="right_spoke0_8_subnet_1" style="shape=rectangle;rounded=0;whiteSpace=wrap;html=1;strokeColor=#C8C6C4;fontColor=#323130;fillColor=#FAF9F8;align=left" vertex="1" parent="right_spoke0_8" value="iot-devices 10.19.2.0/24">
          <mxGeometry x="25" y="85" width="350" height="20" as="geometry"/>
        </mxCell>
        <mxCell id="right_spoke0_8_subnet_1_icon" style="shape=image;html=1;image=img/lib/azure2/networking/Subnet.svg;" vertex="1" parent="right_spoke0_8">
          <mxGeometry x="355" y="88" width="20" height="12" as="geometry"/>
        </mxCell>
        <mxCell id="right_spoke0_8_subnet_1_udr" style="shape=image;html=1;image=img/lib/azure2/networking/Route_Tables.svg;" vertex="1" parent="right_spoke0_8">
          <mxGeometry x="336" y="87" width="16" height="16" as="geometry"/>
        </mxCell>
        <mxCell id="right_spoke0_8_subnet_1_nsg" style="shape=image;html=1;image=img/lib/azure2/networking/Network_Security_Groups.svg;" vertex="1" parent="right_spoke0_8">
          <mxGeometry x="317" y="87" width="16" height="16" as="geometry"/>
        </mxCell>
        <mxCell id="edge_right_0_8_spoke19-vnet" edge="1" source="hub_0" target="right_spoke0_8" style="edgeStyle=orthogonalEdgeStyle;rounded=1;strokeColor=#0078D4;strokeWidth=2;endArrow=block;startArrow=block;" parent="1">
          <mxGeometry relative="1" as="geometry">
            <Array as="points">
              <mxPoint x="770" y="1280"/>
            </Array>
          </mxGeometry>
        </mxCell>
        <mxCell id="right_spoke0_9_group" value="" style="group" vertex="1" connectable="0" parent="1">
          <mxGeometry x="920" y="1410" width="400" height="105" as="geometry"/>
        </mxCell>
        <mxCell id="right_spoke0_9" style="shape=rectangle;rounded=0;whiteSpace=wrap;html=1;strokeColor=#CC6600;fontColor=#CC6600;fillColor=#f2f7fc;verticalAlign=top;align=left" vertex="1" parent="right_spoke0_9_group" value="Subscription: Spoke20-Subscription&#10;spoke20-vnet&#10;10.20.0.0/16">
          <mxGeometry x="0" y="0" width="400" height="85" as="geometry"/>
        </mxCell>
        <mxCell id="right_spoke0_9_image" style="shape=image;html=1;image=img/lib/azure2/networking/Virtual_Networks.svg;" vertex="1" parent="right_spoke0_9">
          <mxGeometry x="374" y="3.39" width="20" height="20" as="geometry"/>
        </mxCell>
        <mxCell id="right_spoke0_9_subnet_0" style="shape=rectangle;rounded=0;whiteSpace=wrap;html=1;strokeColor=#C8C6C4;fontColor=#323130;fillColor=#FAF9F8;align=left" vertex="1" parent="right_spoke0_9" value="edge-computing 10.20.1.0/24">
          <mxGeometry x="25" y="55" width="350" height="20" as="geometry"/>
        </mxCell>
        <mxCell id="right_spoke0_9_subnet_0_icon" style="shape=image;html=1;image=img/lib/azure2/networking/Subnet.svg;" vertex="1" parent="right_spoke0_9">
          <mxGeometry x="355" y="58" width="20" height="12" as="geometry"/>
        </mxCell>
        <mxCell id="right_spoke0_9_subnet_0_udr" style="shape=image;html=1;image=img/lib/azure2/networking/Route_Tables.svg;" vertex="1" parent="right_spoke0_9">
          <mxGeometry x="336" y="57" width="16" height="16" as="geometry"/>
        </mxCell>
        <mxCell id="right_spoke0_9_subnet_0_nsg" style="shape=image;html=1;image=img/lib/azure2/networking/Network_Security_Groups.svg;" vertex="1" parent="right_spoke0_9">
          <mxGeometry x="317" y="57" width="16" height="16" as="geometry"/>
        </mxCell>
        <mxCell id="edge_right_0_9_spoke20-vnet" edge="1" source="hub_0" target="right_spoke0_9" style="edgeStyle=orthogonalEdgeStyle;rounded=1;strokeColor=#0078D4;strokeWidth=2;endArrow=block;startArrow=block;" parent="1">
          <mxGeometry relative="1" as="geometry">
            <Array as="points">
              <mxPoint x="770" y="1435"/>
            </Array>
          </mxGeometry>
        </mxCell>
        <mxCell id="left_spoke0_0_group" value="" style="group" vertex="1" connectable="0" parent="1">
          <mxGeometry x="20" y="195" width="400" height="135" as="geometry"/>
        </mxCell>
        <mxCell id="left_spoke0_0" style="shape=rectangle;rounded=0;whiteSpace=wrap;html=1;strokeColor=#CC6600;fontColor=#CC6600;fillColor=#f2f7fc;verticalAlign=top;align=left" vertex="1" parent="left_spoke0_0_group" value="Subscription: Spoke1-Subscription&#10;spoke1-vnet&#10;10.1.0.0/16">
          <mxGeometry x="0" y="0" width="400" height="115" as="geometry"/>
        </mxCell>
        <mxCell id="left_spoke0_0_image" style="shape=image;html=1;image=img/lib/azure2/networking/Virtual_Networks.svg;" vertex="1" parent="left_spoke0_0">
          <mxGeometry x="374" y="3.39" width="20" height="20" as="geometry"/>
        </mxCell>
        <mxCell id="left_spoke0_0_subnet_0" style="shape=rectangle;rounded=0;whiteSpace=wrap;html=1;strokeColor=#C8C6C4;fontColor=#323130;fillColor=#FAF9F8;align=left" vertex="1" parent="left_spoke0_0" value="web 10.1.1.0/24">
          <mxGeometry x="25" y="55" width="350" height="20" as="geometry"/>
        </mxCell>
        <mxCell id="left_spoke0_0_subnet_0_icon" style="shape=image;html=1;image=img/lib/azure2/networking/Subnet.svg;" vertex="1" parent="left_spoke0_0">
          <mxGeometry x="355" y="58" width="20" height="12" as="geometry"/>
        </mxCell>
        <mxCell id="left_spoke0_0_subnet_0_udr" style="shape=image;html=1;image=img/lib/azure2/networking/Route_Tables.svg;" vertex="1" parent="left_spoke0_0">
          <mxGeometry x="336" y="57" width="16" height="16" as="geometry"/>
        </mxCell>
        <mxCell id="left_spoke0_0_subnet_0_nsg" style="shape=image;html=1;image=img/lib/azure2/networking/Network_Security_Groups.svg;" vertex="1" parent="left_spoke0_0">
          <mxGeometry x="317" y="57" width="16" height="16" as="geometry"/>
        </mxCell>
        <mxCell id="left_spoke0_0_subnet_1" style="shape=rectangle;rounded=0;whiteSpace=wrap;html=1;strokeColor=#C8C6C4;fontColor=#323130;fillColor=#FAF9F8;align=left" vertex="1" parent="left_spoke0_0" value="app 10.1.2.0/24">
          <mxGeometry x="25" y="85" width="350" height="20" as="geometry"/>
        </mxCell>
        <mxCell id="left_spoke0_0_subnet_1_icon" style="shape=image;html=1;image=img/lib/azure2/networking/Subnet.svg;" vertex="1" parent="left_spoke0_0">
          <mxGeometry x="355" y="88" width="20" height="12" as="geometry"/>
        </mxCell>
        <mxCell id="left_spoke0_0_subnet_1_nsg" style="shape=image;html=1;image=img/lib/azure2/networking/Network_Security_Groups.svg;" vertex="1" parent="left_spoke0_0">
          <mxGeometry x="336" y="87" width="16" height="16" as="geometry"/>
        </mxCell>
        <mxCell id="edge_left_0_0_spoke1-vnet" edge="1" source="hub_0" target="left_spoke0_0" style="edgeStyle=orthogonalEdgeStyle;rounded=1;strokeColor=#0078D4;strokeWidth=2;endArrow=block;startArrow=block;" parent="1">
          <mxGeometry relative="1" as="geometry">
            <Array as="points">
              <mxPoint x="570" y="220"/>
            </Array>
          </mxGeometry>
        </mxCell>
        <mxCell id="left_spoke0_1_group" value="" style="group" vertex="1" connectable="0" parent="1">
          <mxGeometry x="20" y="350" width="400" height="105" as="geometry"/>
        </mxCell>
        <mxCell id="left_spoke0_1" style="shape=rectangle;rounded=0;whiteSpace=wrap;html=1;strokeColor=#CC6600;fontColor=#CC6600;fillColor=#f2f7fc;verticalAlign=top;align=left" vertex="1" parent="left_spoke0_1_group" value="Subscription: Spoke2-Subscription&#10;spoke2-vnet&#10;10.2.0.0/16">
          <mxGeometry x="0" y="0" width="400" height="85" as="geometry"/>
        </mxCell>
        <mxCell id="left_spoke0_1_image" style="shape=image;html=1;image=img/lib/azure2/networking/Virtual_Networks.svg;" vertex="1" parent="left_spoke0_1">
          <mxGeometry x="374" y="3.39" width="20" height="20" as="geometry"/>
        </mxCell>
        <mxCell id="left_spoke0_1_subnet_0" style="shape=rectangle;rounded=0;whiteSpace=wrap;html=1;strokeColor=#C8C6C4;fontColor=#323130;fillColor=#FAF9F8;align=left" vertex="1" parent="left_spoke0_1" value="database 10.2.1.0/24">
          <mxGeometry x="25" y="55" width="350" height="20" as="geometry"/>
        </mxCell>
        <mxCell id="left_spoke0_1_subnet_0_icon" style="shape=image;html=1;image=img/lib/azure2/networking/Subnet.svg;" vertex="1" parent="left_spoke0_1">
          <mxGeometry x="355" y="58" width="20" height="12" as="geometry"/>
        </mxCell>
        <mxCell id="left_spoke0_1_subnet_0_udr" style="shape=image;html=1;image=img/lib/azure2/networking/Route_Tables.svg;" vertex="1" parent="left_spoke0_1">
          <mxGeometry x="336" y="57" width="16" height="16" as="geometry"/>
        </mxCell>
        <mxCell id="left_spoke0_1_subnet_0_nsg" style="shape=image;html=1;image=img/lib/azure2/networking/Network_Security_Groups.svg;" vertex="1" parent="left_spoke0_1">
          <mxGeometry x="317" y="57" width="16" height="16" as="geometry"/>
        </mxCell>
        <mxCell id="edge_left_0_1_spoke2-vnet" edge="1" source="hub_0" target="left_spoke0_1" style="edgeStyle=orthogonalEdgeStyle;rounded=1;strokeColor=#0078D4;strokeWidth=2;endArrow=block;startArrow=block;" parent="1">
          <mxGeometry relative="1" as="geometry">
            <Array as="points">
              <mxPoint x="570" y="375"/>
            </Array>
          </mxGeometry>
        </mxCell>
        <mxCell id="left_spoke0_2_group" value="" style="group" vertex="1" connectable="0" parent="1">
          <mxGeometry x="20" y="475" width="400" height="135" as="geometry"/>
        </mxCell>
        <mxCell id="left_spoke0_2" style="shape=rectangle;rounded=0;whiteSpace=wrap;html=1;strokeColor=#CC6600;fontColor=#CC6600;fillColor=#f2f7fc;verticalAlign=top;align=left" vertex="1" parent="left_spoke0_2_group" value="Subscription: Spoke3-Subscription&#10;spoke3-vnet&#10;10.3.0.0/16">
          <mxGeometry x="0" y="0" width="400" height="115" as="geometry"/>
        </mxCell>
        <mxCell id="left_spoke0_2_image" style="shape=image;html=1;image=img/lib/azure2/networking/Virtual_Networks.svg;" vertex="1" parent="left_spoke0_2">
          <mxGeometry x="374" y="3.39" width="20" height="20" as="geometry"/>
        </mxCell>
        <mxCell id="left_spoke0_2_subnet_0" style="shape=rectangle;rounded=0;whiteSpace=wrap;html=1;strokeColor=#C8C6C4;fontColor=#323130;fillColor=#FAF9F8;align=left" vertex="1" parent="left_spoke0_2" value="compute 10.3.1.0/24">
          <mxGeometry x="25" y="55" width="350" height="20" as="geometry"/>
        </mxCell>
        <mxCell id="left_spoke0_2_subnet_0_icon" style="shape=image;html=1;image=img/lib/azure2/networking/Subnet.svg;" vertex="1" parent="left_spoke0_2">
          <mxGeometry x="355" y="58" width="20" height="12" as="geometry"/>
        </mxCell>
        <mxCell id="left_spoke0_2_subnet_0_nsg" style="shape=image;html=1;image=img/lib/azure2/networking/Network_Security_Groups.svg;" vertex="1" parent="left_spoke0_2">
          <mxGeometry x="336" y="57" width="16" height="16" as="geometry"/>
        </mxCell>
        <mxCell id="left_spoke0_2_subnet_1" style="shape=rectangle;rounded=0;whiteSpace=wrap;html=1;strokeColor=#C8C6C4;fontColor=#323130;fillColor=#FAF9F8;align=left" vertex="1" parent="left_spoke0_2" value="storage 10.3.2.0/24">
          <mxGeometry x="25" y="85" width="350" height="20" as="geometry"/>
        </mxCell>
        <mxCell id="left_spoke0_2_subnet_1_icon" style="shape=image;html=1;image=img/lib/azure2/networking/Subnet.svg;" vertex="1" parent="left_spoke0_2">
          <mxGeometry x="355" y="88" width="20" height="12" as="geometry"/>
        </mxCell>
        <mxCell id="left_spoke0_2_subnet_1_udr" style="shape=image;html=1;image=img/lib/azure2/networking/Route_Tables.svg;" vertex="1" parent="left_spoke0_2">
          <mxGeometry x="336" y="87" width="16" height="16" as="geometry"/>
        </mxCell>
        <mxCell id="edge_left_0_2_spoke3-vnet" edge="1" source="hub_0" target="left_spoke0_2" style="edgeStyle=orthogonalEdgeStyle;rounded=1;strokeColor=#0078D4;strokeWidth=2;endArrow=block;startArrow=block;" parent="1">
          <mxGeometry relative="1" as="geometry">
            <Array as="points">
              <mxPoint x="570" y="500"/>
            </Array>
          </mxGeometry>
        </mxCell>
        <mxCell id="left_spoke0_3_group" value="" style="group" vertex="1" connectable="0" parent="1">
          <mxGeometry x="20" y="630" width="400" height="105" as="geometry"/>
        </mxCell>
        <mxCell id="left_spoke0_3" style="shape=rectangle;rounded=0;whiteSpace=wrap;html=1;strokeColor=#CC6600;fontColor=#CC6600;fillColor=#f2f7fc;verticalAlign=top;align=left" vertex="1" parent="left_spoke0_3_group" value="Subscription: Spoke4-Subscription&#10;spoke4-vnet&#10;10.4.0.0/16">
          <mxGeometry x="0" y="0" width="400" height="85" as="geometry"/>
        </mxCell>
        <mxCell id="left_spoke0_3_image" style="shape=image;html=1;image=img/lib/azure2/networking/Virtual_Networks.svg;" vertex="1" parent="left_spoke0_3">
          <mxGeometry x="374" y="3.39" width="20" height="20" as="geometry"/>
        </mxCell>
        <mxCell id="left_spoke0_3_subnet_0" style="shape=rectangle;rounded=0;whiteSpace=wrap;html=1;strokeColor=#C8C6C4;fontColor=#323130;fillColor=#FAF9F8;align=left" vertex="1" parent="left_spoke0_3" value="analytics 10.4.1.0/24">
          <mxGeometry x="25" y="55" width="350" height="20" as="geometry"/>
        </mxCell>
        <mxCell id="left_spoke0_3_subnet_0_icon" style="shape=image;html=1;image=img/lib/azure2/networking/Subnet.svg;" vertex="1" parent="left_spoke0_3">
          <mxGeometry x="355" y="58" width="20" height="12" as="geometry"/>
        </mxCell>
        <mxCell id="left_spoke0_3_subnet_0_udr" style="shape=image;html=1;image=img/lib/azure2/networking/Route_Tables.svg;" vertex="1" parent="left_spoke0_3">
          <mxGeometry x="336" y="57" width="16" height="16" as="geometry"/>
        </mxCell>
        <mxCell id="left_spoke0_3_subnet_0_nsg" style="shape=image;html=1;image=img/lib/azure2/networking/Network_Security_Groups.svg;" vertex="1" parent="left_spoke0_3">
          <mxGeometry x="317" y="57" width="16" height="16" as="geometry"/>
        </mxCell>
        <mxCell id="edge_left_0_3_spoke4-vnet" edge="1" source="hub_0" target="left_spoke0_3" style="edgeStyle=orthogonalEdgeStyle;rounded=1;strokeColor=#0078D4;strokeWidth=2;endArrow=block;startArrow=block;" parent="1">
          <mxGeometry relative="1" as="geometry">
            <Array as="points">
              <mxPoint x="570" y="655"/>
            </Array>
          </mxGeometry>
        </mxCell>
        <mxCell id="left_spoke0_4_group" value="" style="group" vertex="1" connectable="0" parent="1">
          <mxGeometry x="20" y="755" width="400" height="135" as="geometry"/>
        </mxCell>
        <mxCell id="left_spoke0_4" style="shape=rectangle;rounded=0;whiteSpace=wrap;html=1;strokeColor=#CC6600;fontColor=#CC6600;fillColor=#f2f7fc;verticalAlign=top;align=left" vertex="1" parent="left_spoke0_4_group" value="Subscription: Spoke5-Subscription&#10;spoke5-vnet&#10;10.5.0.0/16">
          <mxGeometry x="0" y="0" width="400" height="115" as="geometry"/>
        </mxCell>
        <mxCell id="left_spoke0_4_image" style="shape=image;html=1;image=img/lib/azure2/networking/Virtual_Networks.svg;" vertex="1" parent="left_spoke0_4">
          <mxGeometry x="374" y="3.39" width="20" height="20" as="geometry"/>
        </mxCell>
        <mxCell id="left_spoke0_4_subnet_0" style="shape=rectangle;rounded=0;whiteSpace=wrap;html=1;strokeColor=#C8C6C4;fontColor=#323130;fillColor=#FAF9F8;align=left" vertex="1" parent="left_spoke0_4" value="frontend 10.5.1.0/24">
          <mxGeometry x="25" y="55" width="350" height="20" as="geometry"/>
        </mxCell>
        <mxCell id="left_spoke0_4_subnet_0_icon" style="shape=image;html=1;image=img/lib/azure2/networking/Subnet.svg;" vertex="1" parent="left_spoke0_4">
          <mxGeometry x="355" y="58" width="20" height="12" as="geometry"/>
        </mxCell>
        <mxCell id="left_spoke0_4_subnet_0_nsg" style="shape=image;html=1;image=img/lib/azure2/networking/Network_Security_Groups.svg;" vertex="1" parent="left_spoke0_4">
          <mxGeometry x="336" y="57" width="16" height="16" as="geometry"/>
        </mxCell>
        <mxCell id="left_spoke0_4_subnet_1" style="shape=rectangle;rounded=0;whiteSpace=wrap;html=1;strokeColor=#C8C6C4;fontColor=#323130;fillColor=#FAF9F8;align=left" vertex="1" parent="left_spoke0_4" value="backend 10.5.2.0/24">
          <mxGeometry x="25" y="85" width="350" height="20" as="geometry"/>
        </mxCell>
        <mxCell id="left_spoke0_4_subnet_1_icon" style="shape=image;html=1;image=img/lib/azure2/networking/Subnet.svg;" vertex="1" parent="left_spoke0_4">
          <mxGeometry x="355" y="88" width="20" height="12" as="geometry"/>
        </mxCell>
        <mxCell id="left_spoke0_4_subnet_1_udr" style="shape=image;html=1;image=img/lib/azure2/networking/Route_Tables.svg;" vertex="1" parent="left_spoke0_4">
          <mxGeometry x="336" y="87" width="16" height="16" as="geometry"/>
        </mxCell>
        <mxCell id="left_spoke0_4_subnet_1_nsg" style="shape=image;html=1;image=img/lib/azure2/networking/Network_Security_Groups.svg;" vertex="1" parent="left_spoke0_4">
          <mxGeometry x="317" y="87" width="16" height="16" as="geometry"/>
        </mxCell>
        <mxCell id="edge_left_0_4_spoke5-vnet" edge="1" source="hub_0" target="left_spoke0_4" style="edgeStyle=orthogonalEdgeStyle;rounded=1;strokeColor=#0078D4;strokeWidth=2;endArrow=block;startArrow=block;" parent="1">
          <mxGeometry relative="1" as="geometry">
            <Array as="points">
              <mxPoint x="570" y="780"/>
            </Array>
          </mxGeometry>
        </mxCell>
        <mxCell id="left_spoke0_5_group" value="" style="group" vertex="1" connectable="0" parent="1">
          <mxGeometry x="20" y="910" width="400" height="105" as="geometry"/>
        </mxCell>
        <mxCell id="left_spoke0_5" style="shape=rectangle;rounded=0;whiteSpace=wrap;html=1;strokeColor=#CC6600;fontColor=#CC6600;fillColor=#f2f7fc;verticalAlign=top;align=left" vertex="1" parent="left_spoke0_5_group" value="Subscription: Spoke6-Subscription&#10;spoke6-vnet&#10;10.6.0.0/16">
          <mxGeometry x="0" y="0" width="400" height="85" as="geometry"/>
        </mxCell>
        <mxCell id="left_spoke0_5_image" style="shape=image;html=1;image=img/lib/azure2/networking/Virtual_Networks.svg;" vertex="1" parent="left_spoke0_5">
          <mxGeometry x="374" y="3.39" width="20" height="20" as="geometry"/>
        </mxCell>
        <mxCell id="left_spoke0_5_vpn_image" style="shape=image;html=1;image=img/lib/azure2/networking/Virtual_Network_Gateways.svg;" vertex="1" parent="left_spoke0_5">
          <mxGeometry x="349" y="3.39" width="20" height="20" as="geometry"/>
        </mxCell>
        <mxCell id="left_spoke0_5_subnet_0" style="shape=rectangle;rounded=0;whiteSpace=wrap;html=1;strokeColor=#C8C6C4;fontColor=#323130;fillColor=#FAF9F8;align=left" vertex="1" parent="left_spoke0_5" value="identity 10.6.1.0/24">
          <mxGeometry x="25" y="55" width="350" height="20" as="geometry"/>
        </mxCell>
        <mxCell id="left_spoke0_5_subnet_0_icon" style="shape=image;html=1;image=img/lib/azure2/networking/Subnet.svg;" vertex="1" parent="left_spoke0_5">
          <mxGeometry x="355" y="58" width="20" height="12" as="geometry"/>
        </mxCell>
        <mxCell id="left_spoke0_5_subnet_0_udr" style="shape=image;html=1;image=img/lib/azure2/networking/Route_Tables.svg;" vertex="1" parent="left_spoke0_5">
          <mxGeometry x="336" y="57" width="16" height="16" as="geometry"/>
        </mxCell>
        <mxCell id="left_spoke0_5_subnet_0_nsg" style="shape=image;html=1;image=img/lib/azure2/networking/Network_Security_Groups.svg;" vertex="1" parent="left_spoke0_5">
          <mxGeometry x="317" y="57" width="16" height="16" as="geometry"/>
        </mxCell>
        <mxCell id="edge_left_0_5_spoke6-vnet" edge="1" source="hub_0" target="left_spoke0_5" style="edgeStyle=orthogonalEdgeStyle;rounded=1;strokeColor=#0078D4;strokeWidth=2;endArrow=block;startArrow=block;" parent="1">
          <mxGeometry relative="1" as="geometry">
            <Array as="points">
              <mxPoint x="570" y="935"/>
            </Array>
          </mxGeometry>
        </mxCell>
        <mxCell id="left_spoke0_6_group" value="" style="group" vertex="1" connectable="0" parent="1">
          <mxGeometry x="20" y="1035" width="400" height="135" as="geometry"/>
        </mxCell>
        <mxCell id="left_spoke0_6" style="shape=rectangle;rounded=0;whiteSpace=wrap;html=1;strokeColor=#CC6600;fontColor=#CC6600;fillColor=#f2f7fc;verticalAlign=top;align=left" vertex="1" parent="left_spoke0_6_group" value="Subscription: Spoke7-Subscription&#10;spoke7-vnet&#10;10.7.0.0/16">
          <mxGeometry x="0" y="0" width="400" height="115" as="geometry"/>
        </mxCell>
        <mxCell id="left_spoke0_6_image" style="shape=image;html=1;image=img/lib/azure2/networking/Virtual_Networks.svg;" vertex="1" parent="left_spoke0_6">
          <mxGeometry x="374" y="3.39" width="20" height="20" as="geometry"/>
        </mxCell>
        <mxCell id="left_spoke0_6_subnet_0" style="shape=rectangle;rounded=0;whiteSpace=wrap;html=1;strokeColor=#C8C6C4;fontColor=#323130;fillColor=#FAF9F8;align=left" vertex="1" parent="left_spoke0_6" value="monitoring 10.7.1.0/24">
          <mxGeometry x="25" y="55" width="350" height="20" as="geometry"/>
        </mxCell>
        <mxCell id="left_spoke0_6_subnet_0_icon" style="shape=image;html=1;image=img/lib/azure2/networking/Subnet.svg;" vertex="1" parent="left_spoke0_6">
          <mxGeometry x="355" y="58" width="20" height="12" as="geometry"/>
        </mxCell>
        <mxCell id="left_spoke0_6_subnet_0_nsg" style="shape=image;html=1;image=img/lib/azure2/networking/Network_Security_Groups.svg;" vertex="1" parent="left_spoke0_6">
          <mxGeometry x="336" y="57" width="16" height="16" as="geometry"/>
        </mxCell>
        <mxCell id="left_spoke0_6_subnet_1" style="shape=rectangle;rounded=0;whiteSpace=wrap;html=1;strokeColor=#C8C6C4;fontColor=#323130;fillColor=#FAF9F8;align=left" vertex="1" parent="left_spoke0_6" value="logging 10.7.2.0/24">
          <mxGeometry x="25" y="85" width="350" height="20" as="geometry"/>
        </mxCell>
        <mxCell id="left_spoke0_6_subnet_1_icon" style="shape=image;html=1;image=img/lib/azure2/networking/Subnet.svg;" vertex="1" parent="left_spoke0_6">
          <mxGeometry x="355" y="88" width="20" height="12" as="geometry"/>
        </mxCell>
        <mxCell id="left_spoke0_6_subnet_1_udr" style="shape=image;html=1;image=img/lib/azure2/networking/Route_Tables.svg;" vertex="1" parent="left_spoke0_6">
          <mxGeometry x="336" y="87" width="16" height="16" as="geometry"/>
        </mxCell>
        <mxCell id="edge_left_0_6_spoke7-vnet" edge="1" source="hub_0" target="left_spoke0_6" style="edgeStyle=orthogonalEdgeStyle;rounded=1;strokeColor=#0078D4;strokeWidth=2;endArrow=block;startArrow=block;" parent="1">
          <mxGeometry relative="1" as="geometry">
            <Array as="points">
              <mxPoint x="570" y="1060"/>
            </Array>
          </mxGeometry>
        </mxCell>
        <mxCell id="left_spoke0_7_group" value="" style="group" vertex="1" connectable="0" parent="1">
          <mxGeometry x="20" y="1190" width="400" height="105" as="geometry"/>
        </mxCell>
        <mxCell id="left_spoke0_7" style="shape=rectangle;rounded=0;whiteSpace=wrap;html=1;strokeColor=#CC6600;fontColor=#CC6600;fillColor=#f2f7fc;verticalAlign=top;align=left" vertex="1" parent="left_spoke0_7_group" value="Subscription: Spoke8-Subscription&#10;spoke8-vnet&#10;10.8.0.0/16">
          <mxGeometry x="0" y="0" width="400" height="85" as="geometry"/>
        </mxCell>
        <mxCell id="left_spoke0_7_image" style="shape=image;html=1;image=img/lib/azure2/networking/Virtual_Networks.svg;" vertex="1" parent="left_spoke0_7">
          <mxGeometry x="374" y="3.39" width="20" height="20" as="geometry"/>
        </mxCell>
        <mxCell id="left_spoke0_7_subnet_0" style="shape=rectangle;rounded=0;whiteSpace=wrap;html=1;strokeColor=#C8C6C4;fontColor=#323130;fillColor=#FAF9F8;align=left" vertex="1" parent="left_spoke0_7" value="api 10.8.1.0/24">
          <mxGeometry x="25" y="55" width="350" height="20" as="geometry"/>
        </mxCell>
        <mxCell id="left_spoke0_7_subnet_0_icon" style="shape=image;html=1;image=img/lib/azure2/networking/Subnet.svg;" vertex="1" parent="left_spoke0_7">
          <mxGeometry x="355" y="58" width="20" height="12" as="geometry"/>
        </mxCell>
        <mxCell id="left_spoke0_7_subnet_0_udr" style="shape=image;html=1;image=img/lib/azure2/networking/Route_Tables.svg;" vertex="1" parent="left_spoke0_7">
          <mxGeometry x="336" y="57" width="16" height="16" as="geometry"/>
        </mxCell>
        <mxCell id="left_spoke0_7_subnet_0_nsg" style="shape=image;html=1;image=img/lib/azure2/networking/Network_Security_Groups.svg;" vertex="1" parent="left_spoke0_7">
          <mxGeometry x="317" y="57" width="16" height="16" as="geometry"/>
        </mxCell>
        <mxCell id="edge_left_0_7_spoke8-vnet" edge="1" source="hub_0" target="left_spoke0_7" style="edgeStyle=orthogonalEdgeStyle;rounded=1;strokeColor=#0078D4;strokeWidth=2;endArrow=block;startArrow=block;" parent="1">
          <mxGeometry relative="1" as="geometry">
            <Array as="points">
              <mxPoint x="570" y="1215"/>
            </Array>
          </mxGeometry>
        </mxCell>
        <mxCell id="left_spoke0_8_group" value="" style="group" vertex="1" connectable="0" parent="1">
          <mxGeometry x="20" y="1315" width="400" height="105" as="geometry"/>
        </mxCell>
        <mxCell id="left_spoke0_8" style="shape=rectangle;rounded=0;whiteSpace=wrap;html=1;strokeColor=#CC6600;fontColor=#CC6600;fillColor=#f2f7fc;verticalAlign=top;align=left" vertex="1" parent="left_spoke0_8_group" value="Subscription: Spoke9-Subscription&#10;spoke9-vnet&#10;10.9.0.0/16">
          <mxGeometry x="0" y="0" width="400" height="85" as="geometry"/>
        </mxCell>
        <mxCell id="left_spoke0_8_image" style="shape=image;html=1;image=img/lib/azure2/networking/Virtual_Networks.svg;" vertex="1" parent="left_spoke0_8">
          <mxGeometry x="374" y="3.39" width="20" height="20" as="geometry"/>
        </mxCell>
        <mxCell id="left_spoke0_8_subnet_0" style="shape=rectangle;rounded=0;whiteSpace=wrap;html=1;strokeColor=#C8C6C4;fontColor=#323130;fillColor=#FAF9F8;align=left" vertex="1" parent="left_spoke0_8" value="cache 10.9.1.0/24">
          <mxGeometry x="25" y="55" width="350" height="20" as="geometry"/>
        </mxCell>
        <mxCell id="left_spoke0_8_subnet_0_icon" style="shape=image;html=1;image=img/lib/azure2/networking/Subnet.svg;" vertex="1" parent="left_spoke0_8">
          <mxGeometry x="355" y="58" width="20" height="12" as="geometry"/>
        </mxCell>
        <mxCell id="edge_left_0_8_spoke9-vnet" edge="1" source="hub_0" target="left_spoke0_8" style="edgeStyle=orthogonalEdgeStyle;rounded=1;strokeColor=#0078D4;strokeWidth=2;endArrow=block;startArrow=block;" parent="1">
          <mxGeometry relative="1" as="geometry">
            <Array as="points">
              <mxPoint x="570" y="1340"/>
            </Array>
          </mxGeometry>
        </mxCell>
        <mxCell id="left_spoke0_9_group" value="" style="group" vertex="1" connectable="0" parent="1">
          <mxGeometry x="20" y="1440" width="400" height="135" as="geometry"/>
        </mxCell>
        <mxCell id="left_spoke0_9" style="shape=rectangle;rounded=0;whiteSpace=wrap;html=1;strokeColor=#CC6600;fontColor=#CC6600;fillColor=#f2f7fc;verticalAlign=top;align=left" vertex="1" parent="left_spoke0_9_group" value="Subscription: Spoke10-Subscription&#10;spoke10-vnet&#10;10.10.0.0/16">
          <mxGeometry x="0" y="0" width="400" height="115" as="geometry"/>
        </mxCell>
        <mxCell id="left_spoke0_9_image" style="shape=image;html=1;image=img/lib/azure2/networking/Virtual_Networks.svg;" vertex="1" parent="left_spoke0_9">
          <mxGeometry x="374" y="3.39" width="20" height="20" as="geometry"/>
        </mxCell>
        <mxCell id="left_spoke0_9_subnet_0" style="shape=rectangle;rounded=0;whiteSpace=wrap;html=1;strokeColor=#C8C6C4;fontColor=#323130;fillColor=#FAF9F8;align=left" vertex="1" parent="left_spoke0_9" value="messaging 10.10.1.0/24">
          <mxGeometry x="25" y="55" width="350" height="20" as="geometry"/>
        </mxCell>
        <mxCell id="left_spoke0_9_subnet_0_icon" style="shape=image;html=1;image=img/lib/azure2/networking/Subnet.svg;" vertex="1" parent="left_spoke0_9">
          <mxGeometry x="355" y="58" width="20" height="12" as="geometry"/>
        </mxCell>
        <mxCell id="left_spoke0_9_subnet_0_udr" style="shape=image;html=1;image=img/lib/azure2/networking/Route_Tables.svg;" vertex="1" parent="left_spoke0_9">
          <mxGeometry x="336" y="57" width="16" height="16" as="geometry"/>
        </mxCell>
        <mxCell id="left_spoke0_9_subnet_0_nsg" style="shape=image;html=1;image=img/lib/azure2/networking/Network_Security_Groups.svg;" vertex="1" parent="left_spoke0_9">
          <mxGeometry x="317" y="57" width="16" height="16" as="geometry"/>
        </mxCell>
        <mxCell id="left_spoke0_9_subnet_1" style="shape=rectangle;rounded=0;whiteSpace=wrap;html=1;strokeColor=#C8C6C4;fontColor=#323130;fillColor=#FAF9F8;align=left" vertex="1" parent="left_spoke0_9" value="queue 10.10.2.0/24">
          <mxGeometry x="25" y="85" width="350" height="20" as="geometry"/>
        </mxCell>
        <mxCell id="left_spoke0_9_subnet_1_icon" style="shape=image;html=1;image=img/lib/azure2/networking/Subnet.svg;" vertex="1" parent="left_spoke0_9">
          <mxGeometry x="355" y="88" width="20" height="12" as="geometry"/>
        </mxCell>
        <mxCell id="left_spoke0_9_subnet_1_nsg" style="shape=image;html=1;image=img/lib/azure2/networking/Network_Security_Groups.svg;" vertex="1" parent="left_spoke0_9">
          <mxGeometry x="336" y="87" width="16" height="16" as="geometry"/>
        </mxCell>
        <mxCell id="edge_left_0_9_spoke10-vnet" edge="1" source="hub_0" target="left_spoke0_9" style="edgeStyle=orthogonalEdgeStyle;rounded=1;strokeColor=#0078D4;strokeWidth=2;endArrow=block;startArrow=block;" parent="1">
          <mxGeometry relative="1" as="geometry">
            <Array as="points">
              <mxPoint x="570" y="1465"/>
            </Array>
          </mxGeometry>
        </mxCell>
        <mxCell id="hub_1_group" value="" style="group" vertex="1" connectable="0" parent="1">
          <mxGeometry x="2270" y="20" width="400" height="195" as="geometry"/>
        </mxCell>
        <mxCell id="hub_1" style="shape=rectangle;rounded=0;whiteSpace=wrap;html=1;strokeColor=#0078D4;fontColor=#004578;fillColor=#E6F1FB;verticalAlign=top;align=left" vertex="1" parent="hub_1_group" value="Subscription: Hub2-Subscription&#10;hub2-vnet&#10;10.100.0.0/16">
          <mxGeometry x="0" y="0" width="400" height="175" as="geometry"/>
        </mxCell>
        <mxCell id="hub_1_image" style="shape=image;html=1;image=img/lib/azure2/networking/Virtual_Networks.svg;" vertex="1" parent="hub_1">
          <mxGeometry x="374" y="3.39" width="20" height="20" as="geometry"/>
        </mxCell>
        <mxCell id="hub_1_expressroute_image" style="shape=image;html=1;image=img/lib/azure2/networking/ExpressRoute_Circuits.svg;" vertex="1" parent="hub_1">
          <mxGeometry x="349" y="3.39" width="20" height="20" as="geometry"/>
        </mxCell>
        <mxCell id="hub_1_firewall_image" style="shape=image;html=1;image=img/lib/azure2/networking/Firewalls.svg;" vertex="1" parent="hub_1">
          <mxGeometry x="324" y="3.39" width="20" height="20" as="geometry"/>
        </mxCell>
        <mxCell id="hub_1_vpn_image" style="shape=image;html=1;image=img/lib/azure2/networking/Virtual_Network_Gateways.svg;" vertex="1" parent="hub_1">
          <mxGeometry x="299" y="3.39" width="20" height="20" as="geometry"/>
        </mxCell>
        <mxCell id="hub_1_subnet_0" style="shape=rectangle;rounded=0;whiteSpace=wrap;html=1;strokeColor=#C8C6C4;fontColor=#323130;fillColor=#FAF9F8;align=left" vertex="1" parent="hub_1" value="default 10.100.1.0/24">
          <mxGeometry x="25" y="55" width="350" height="20" as="geometry"/>
        </mxCell>
        <mxCell id="hub_1_subnet_0_icon" style="shape=image;html=1;image=img/lib/azure2/networking/Subnet.svg;" vertex="1" parent="hub_1">
          <mxGeometry x="355" y="58" width="20" height="12" as="geometry"/>
        </mxCell>
        <mxCell id="hub_1_subnet_0_nsg" style="shape=image;html=1;image=img/lib/azure2/networking/Network_Security_Groups.svg;" vertex="1" parent="hub_1">
          <mxGeometry x="336" y="57" width="16" height="16" as="geometry"/>
        </mxCell>
        <mxCell id="hub_1_subnet_1" style="shape=rectangle;rounded=0;whiteSpace=wrap;html=1;strokeColor=#C8C6C4;fontColor=#323130;fillColor=#FAF9F8;align=left" vertex="1" parent="hub_1" value="GatewaySubnet 10.100.2.0/24">
          <mxGeometry x="25" y="85" width="350" height="20" as="geometry"/>
        </mxCell>
        <mxCell id="hub_1_subnet_1_icon" style="shape=image;html=1;image=img/lib/azure2/networking/Subnet.svg;" vertex="1" parent="hub_1">
          <mxGeometry x="355" y="88" width="20" height="12" as="geometry"/>
        </mxCell>
        <mxCell id="hub_1_subnet_1_udr" style="shape=image;html=1;image=img/lib/azure2/networking/Route_Tables.svg;" vertex="1" parent="hub_1">
          <mxGeometry x="336" y="87" width="16" height="16" as="geometry"/>
        </mxCell>
        <mxCell id="hub_1_subnet_2" style="shape=rectangle;rounded=0;whiteSpace=wrap;html=1;strokeColor=#C8C6C4;fontColor=#323130;fillColor=#FAF9F8;align=left" vertex="1" parent="hub_1" value="AzureFirewallSubnet 10.100.3.0/24">
          <mxGeometry x="25" y="115" width="350" height="20" as="geometry"/>
        </mxCell>
        <mxCell id="hub_1_subnet_2_icon" style="shape=image;html=1;image=img/lib/azure2/networking/Subnet.svg;" vertex="1" parent="hub_1">
          <mxGeometry x="355" y="118" width="20" height="12" as="geometry"/>
        </mxCell>
        <mxCell id="hub_1_subnet_3" style="shape=rectangle;rounded=0;whiteSpace=wrap;html=1;strokeColor=#C8C6C4;fontColor=#323130;fillColor=#FAF9F8;align=left" vertex="1" parent="hub_1" value="management 10.100.4.0/24">
          <mxGeometry x="25" y="145" width="350" height="20" as="geometry"/>
        </mxCell>
        <mxCell id="hub_1_subnet_3_icon" style="shape=image;html=1;image=img/lib/azure2/networking/Subnet.svg;" vertex="1" parent="hub_1">
          <mxGeometry x="355" y="148" width="20" height="12" as="geometry"/>
        </mxCell>
        <mxCell id="hub_1_subnet_3_udr" style="shape=image;html=1;image=img/lib/azure2/networking/Route_Tables.svg;" vertex="1" parent="hub_1">
          <mxGeometry x="336" y="147" width="16" height="16" as="geometry"/>
        </mxCell>
        <mxCell id="hub_1_subnet_3_nsg" style="shape=image;html=1;image=img/lib/azure2/networking/Network_Security_Groups.svg;" vertex="1" parent="hub_1">
          <mxGeometry x="317" y="147" width="16" height="16" as="geometry"/>
        </mxCell>
        <mxCell id="right_spoke1_0_group" value="" style="group" vertex="1" connectable="0" parent="1">
          <mxGeometry x="2720" y="195" width="400" height="135" as="geometry"/>
        </mxCell>
        <mxCell id="right_spoke1_0" style="shape=rectangle;rounded=0;whiteSpace=wrap;html=1;strokeColor=#CC6600;fontColor=#CC6600;fillColor=#f2f7fc;verticalAlign=top;align=left" vertex="1" parent="right_spoke1_0_group" value="Subscription: Spoke27-Subscription&#10;spoke27-vnet&#10;10.27.0.0/16">
          <mxGeometry x="0" y="0" width="400" height="115" as="geometry"/>
        </mxCell>
        <mxCell id="right_spoke1_0_image" style="shape=image;html=1;image=img/lib/azure2/networking/Virtual_Networks.svg;" vertex="1" parent="right_spoke1_0">
          <mxGeometry x="374" y="3.39" width="20" height="20" as="geometry"/>
        </mxCell>
        <mxCell id="right_spoke1_0_subnet_0" style="shape=rectangle;rounded=0;whiteSpace=wrap;html=1;strokeColor=#C8C6C4;fontColor=#323130;fillColor=#FAF9F8;align=left" vertex="1" parent="right_spoke1_0" value="robotics 10.27.1.0/24">
          <mxGeometry x="25" y="55" width="350" height="20" as="geometry"/>
        </mxCell>
        <mxCell id="right_spoke1_0_subnet_0_icon" style="shape=image;html=1;image=img/lib/azure2/networking/Subnet.svg;" vertex="1" parent="right_spoke1_0">
          <mxGeometry x="355" y="58" width="20" height="12" as="geometry"/>
        </mxCell>
        <mxCell id="right_spoke1_0_subnet_0_nsg" style="shape=image;html=1;image=img/lib/azure2/networking/Network_Security_Groups.svg;" vertex="1" parent="right_spoke1_0">
          <mxGeometry x="336" y="57" width="16" height="16" as="geometry"/>
        </mxCell>
        <mxCell id="right_spoke1_0_subnet_1" style="shape=rectangle;rounded=0;whiteSpace=wrap;html=1;strokeColor=#C8C6C4;fontColor=#323130;fillColor=#FAF9F8;align=left" vertex="1" parent="right_spoke1_0" value="automation 10.27.2.0/24">
          <mxGeometry x="25" y="85" width="350" height="20" as="geometry"/>
        </mxCell>
        <mxCell id="right_spoke1_0_subnet_1_icon" style="shape=image;html=1;image=img/lib/azure2/networking/Subnet.svg;" vertex="1" parent="right_spoke1_0">
          <mxGeometry x="355" y="88" width="20" height="12" as="geometry"/>
        </mxCell>
        <mxCell id="right_spoke1_0_subnet_1_udr" style="shape=image;html=1;image=img/lib/azure2/networking/Route_Tables.svg;" vertex="1" parent="right_spoke1_0">
          <mxGeometry x="336" y="87" width="16" height="16" as="geometry"/>
        </mxCell>
        <mxCell id="edge_right_1_0_spoke27-vnet" edge="1" source="hub_1" target="right_spoke1_0" style="edgeStyle=orthogonalEdgeStyle;rounded=1;strokeColor=#0078D4;strokeWidth=2;endArrow=block;startArrow=block;" parent="1">
          <mxGeometry relative="1" as="geometry">
            <Array as="points">
              <mxPoint x="2570" y="220"/>
            </Array>
          </mxGeometry>
        </mxCell>
        <mxCell id="right_spoke1_1_group" value="" style="group" vertex="1" connectable="0" parent="1">
          <mxGeometry x="2720" y="350" width="400" height="105" as="geometry"/>
        </mxCell>
        <mxCell id="right_spoke1_1" style="shape=rectangle;rounded=0;whiteSpace=wrap;html=1;strokeColor=#CC6600;fontColor=#CC6600;fillColor=#f2f7fc;verticalAlign=top;align=left" vertex="1" parent="right_spoke1_1_group" value="Subscription: Spoke28-Subscription&#10;spoke28-vnet&#10;10.28.0.0/16">
          <mxGeometry x="0" y="0" width="400" height="85" as="geometry"/>
        </mxCell>
        <mxCell id="right_spoke1_1_image" style="shape=image;html=1;image=img/lib/azure2/networking/Virtual_Networks.svg;" vertex="1" parent="right_spoke1_1">
          <mxGeometry x="374" y="3.39" width="20" height="20" as="geometry"/>
        </mxCell>
        <mxCell id="right_spoke1_1_subnet_0" style="shape=rectangle;rounded=0;whiteSpace=wrap;html=1;strokeColor=#C8C6C4;fontColor=#323130;fillColor=#FAF9F8;align=left" vertex="1" parent="right_spoke1_1" value="weather-data 10.28.1.0/24">
          <mxGeometry x="25" y="55" width="350" height="20" as="geometry"/>
        </mxCell>
        <mxCell id="right_spoke1_1_subnet_0_icon" style="shape=image;html=1;image=img/lib/azure2/networking/Subnet.svg;" vertex="1" parent="right_spoke1_1">
          <mxGeometry x="355" y="58" width="20" height="12" as="geometry"/>
        </mxCell>
        <mxCell id="right_spoke1_1_subnet_0_udr" style="shape=image;html=1;image=img/lib/azure2/networking/Route_Tables.svg;" vertex="1" parent="right_spoke1_1">
          <mxGeometry x="336" y="57" width="16" height="16" as="geometry"/>
        </mxCell>
        <mxCell id="right_spoke1_1_subnet_0_nsg" style="shape=image;html=1;image=img/lib/azure2/networking/Network_Security_Groups.svg;" vertex="1" parent="right_spoke1_1">
          <mxGeometry x="317" y="57" width="16" height="16" as="geometry"/>
        </mxCell>
        <mxCell id="edge_right_1_1_spoke28-vnet" edge="1" source="hub_1" target="right_spoke1_1" style="edgeStyle=orthogonalEdgeStyle;rounded=1;strokeColor=#0078D4;strokeWidth=2;endArrow=block;startArrow=block;" parent="1">
          <mxGeometry relative="1" as="geometry">
            <Array as="points">
              <mxPoint x="2570" y="375"/>
            </Array>
          </mxGeometry>
        </mxCell>
        <mxCell id="right_spoke1_2_group" value="" style="group" vertex="1" connectable="0" parent="1">
          <mxGeometry x="2720" y="475" width="400" height="105" as="geometry"/>
        </mxCell>
        <mxCell id="right_spoke1_2" style="shape=rectangle;rounded=0;whiteSpace=wrap;html=1;strokeColor=#CC6600;fontColor=#CC6600;fillColor=#f2f7fc;verticalAlign=top;align=left" vertex="1" parent="right_spoke1_2_group" value="Subscription: Spoke29-Subscription&#10;spoke29-vnet&#10;10.29.0.0/16">
          <mxGeometry x="0" y="0" width="400" height="85" as="geometry"/>
        </mxCell>
        <mxCell id="right_spoke1_2_image" style="shape=image;html=1;image=img/lib/azure2/networking/Virtual_Networks.svg;" vertex="1" parent="right_spoke1_2">
          <mxGeometry x="374" y="3.39" width="20" height="20" as="geometry"/>
        </mxCell>
        <mxCell id="right_spoke1_2_subnet_0" style="shape=rectangle;rounded=0;whiteSpace=wrap;html=1;strokeColor=#C8C6C4;fontColor=#323130;fillColor=#FAF9F8;align=left" vertex="1" parent="right_spoke1_2" value="geospatial 10.29.1.0/24">
          <mxGeometry x="25" y="55" width="350" height="20" as="geometry"/>
        </mxCell>
        <mxCell id="right_spoke1_2_subnet_0_icon" style="shape=image;html=1;image=img/lib/azure2/networking/Subnet.svg;" vertex="1" parent="right_spoke1_2">
          <mxGeometry x="355" y="58" width="20" height="12" as="geometry"/>
        </mxCell>
        <mxCell id="edge_right_1_2_spoke29-vnet" edge="1" source="hub_1" target="right_spoke1_2" style="edgeStyle=orthogonalEdgeStyle;rounded=1;strokeColor=#0078D4;strokeWidth=2;endArrow=block;startArrow=block;" parent="1">
          <mxGeometry relative="1" as="geometry">
            <Array as="points">
              <mxPoint x="2570" y="500"/>
            </Array>
          </mxGeometry>
        </mxCell>
        <mxCell id="right_spoke1_3_group" value="" style="group" vertex="1" connectable="0" parent="1">
          <mxGeometry x="2720" y="600" width="400" height="135" as="geometry"/>
        </mxCell>
        <mxCell id="right_spoke1_3" style="shape=rectangle;rounded=0;whiteSpace=wrap;html=1;strokeColor=#CC6600;fontColor=#CC6600;fillColor=#f2f7fc;verticalAlign=top;align=left" vertex="1" parent="right_spoke1_3_group" value="Subscription: Spoke30-Subscription&#10;spoke30-vnet&#10;10.30.0.0/16">
          <mxGeometry x="0" y="0" width="400" height="115" as="geometry"/>
        </mxCell>
        <mxCell id="right_spoke1_3_image" style="shape=image;html=1;image=img/lib/azure2/networking/Virtual_Networks.svg;" vertex="1" parent="right_spoke1_3">
          <mxGeometry x="374" y="3.39" width="20" height="20" as="geometry"/>
        </mxCell>
        <mxCell id="right_spoke1_3_subnet_0" style="shape=rectangle;rounded=0;whiteSpace=wrap;html=1;strokeColor=#C8C6C4;fontColor=#323130;fillColor=#FAF9F8;align=left" vertex="1" parent="right_spoke1_3" value="financial 10.30.1.0/24">
          <mxGeometry x="25" y="55" width="350" height="20" as="geometry"/>
        </mxCell>
        <mxCell id="right_spoke1_3_subnet_0_icon" style="shape=image;html=1;image=img/lib/azure2/networking/Subnet.svg;" vertex="1" parent="right_spoke1_3">
          <mxGeometry x="355" y="58" width="20" height="12" as="geometry"/>
        </mxCell>
        <mxCell id="right_spoke1_3_subnet_0_udr" style="shape=image;html=1;image=img/lib/azure2/networking/Route_Tables.svg;" vertex="1" parent="right_spoke1_3">
          <mxGeometry x="336" y="57" width="16" height="16" as="geometry"/>
        </mxCell>
        <mxCell id="right_spoke1_3_subnet_0_nsg" style="shape=image;html=1;image=img/lib/azure2/networking/Network_Security_Groups.svg;" vertex="1" parent="right_spoke1_3">
          <mxGeometry x="317" y="57" width="16" height="16" as="geometry"/>
        </mxCell>
        <mxCell id="right_spoke1_3_subnet_1" style="shape=rectangle;rounded=0;whiteSpace=wrap;html=1;strokeColor=#C8C6C4;fontColor=#323130;fillColor=#FAF9F8;align=left" vertex="1" parent="right_spoke1_3" value="trading 10.30.2.0/24">
          <mxGeometry x="25" y="85" width="350" height="20" as="geometry"/>
        </mxCell>
        <mxCell id="right_spoke1_3_subnet_1_icon" style="shape=image;html=1;image=img/lib/azure2/networking/Subnet.svg;" vertex="1" parent="right_spoke1_3">
          <mxGeometry x="355" y="88" width="20" height="12" as="geometry"/>
        </mxCell>
        <mxCell id="right_spoke1_3_subnet_1_nsg" style="shape=image;html=1;image=img/lib/azure2/networking/Network_Security_Groups.svg;" vertex="1" parent="right_spoke1_3">
          <mxGeometry x="336" y="87" width="16" height="16" as="geometry"/>
        </mxCell>
        <mxCell id="edge_right_1_3_spoke30-vnet" edge="1" source="hub_1" target="right_spoke1_3" style="edgeStyle=orthogonalEdgeStyle;rounded=1;strokeColor=#0078D4;strokeWidth=2;endArrow=block;startArrow=block;" parent="1">
          <mxGeometry relative="1" as="geometry">
            <Array as="points">
              <mxPoint x="2570" y="625"/>
            </Array>
          </mxGeometry>
        </mxCell>
        <mxCell id="right_spoke1_4_group" value="" style="group" vertex="1" connectable="0" parent="1">
          <mxGeometry x="2720" y="755" width="400" height="105" as="geometry"/>
        </mxCell>
        <mxCell id="right_spoke1_4" style="shape=rectangle;rounded=0;whiteSpace=wrap;html=1;strokeColor=#CC6600;fontColor=#CC6600;fillColor=#f2f7fc;verticalAlign=top;align=left" vertex="1" parent="right_spoke1_4_group" value="Subscription: Spoke31-Subscription&#10;spoke31-vnet&#10;10.31.0.0/16">
          <mxGeometry x="0" y="0" width="400" height="85" as="geometry"/>
        </mxCell>
        <mxCell id="right_spoke1_4_image" style="shape=image;html=1;image=img/lib/azure2/networking/Virtual_Networks.svg;" vertex="1" parent="right_spoke1_4">
          <mxGeometry x="374" y="3.39" width="20" height="20" as="geometry"/>
        </mxCell>
        <mxCell id="right_spoke1_4_firewall_image" style="shape=image;html=1;image=img/lib/azure2/networking/Firewalls.svg;" vertex="1" parent="right_spoke1_4">
          <mxGeometry x="349" y="3.39" width="20" height="20" as="geometry"/>
        </mxCell>
        <mxCell id="right_spoke1_4_subnet_0" style="shape=rectangle;rounded=0;whiteSpace=wrap;html=1;strokeColor=#C8C6C4;fontColor=#323130;fillColor=#FAF9F8;align=left" vertex="1" parent="right_spoke1_4" value="streaming-media 10.31.1.0/24">
          <mxGeometry x="25" y="55" width="350" height="20" as="geometry"/>
        </mxCell>
        <mxCell id="right_spoke1_4_subnet_0_icon" style="shape=image;html=1;image=img/lib/azure2/networking/Subnet.svg;" vertex="1" parent="right_spoke1_4">
          <mxGeometry x="355" y="58" width="20" height="12" as="geometry"/>
        </mxCell>
        <mxCell id="right_spoke1_4_subnet_0_udr" style="shape=image;html=1;image=img/lib/azure2/networking/Route_Tables.svg;" vertex="1" parent="right_spoke1_4">
          <mxGeometry x="336" y="57" width="16" height="16" as="geometry"/>
        </mxCell>
        <mxCell id="right_spoke1_4_subnet_0_nsg" style="shape=image;html=1;image=img/lib/azure2/networking/Network_Security_Groups.svg;" vertex="1" parent="right_spoke1_4">
          <mxGeometry x="317" y="57" width="16" height="16" as="geometry"/>
        </mxCell>
        <mxCell id="edge_right_1_4_spoke31-vnet" edge="1" source="hub_1" target="right_spoke1_4" style="edgeStyle=orthogonalEdgeStyle;rounded=1;strokeColor=#0078D4;strokeWidth=2;endArrow=block;startArrow=block;" parent="1">
          <mxGeometry relative="1" as="geometry">
            <Array as="points">
              <mxPoint x="2570" y="780"/>
            </Array>
          </mxGeometry>
        </mxCell>
        <mxCell id="left_spoke1_0_group" value="" style="group" vertex="1" connectable="0" parent="1">
          <mxGeometry x="1820" y="195" width="400" height="135" as="geometry"/>
        </mxCell>
        <mxCell id="left_spoke1_0" style="shape=rectangle;rounded=0;whiteSpace=wrap;html=1;strokeColor=#CC6600;fontColor=#CC6600;fillColor=#f2f7fc;verticalAlign=top;align=left" vertex="1" parent="left_spoke1_0_group" value="Subscription: Spoke21-Subscription&#10;spoke21-vnet&#10;10.21.0.0/16">
          <mxGeometry x="0" y="0" width="400" height="115" as="geometry"/>
        </mxCell>
        <mxCell id="left_spoke1_0_image" style="shape=image;html=1;image=img/lib/azure2/networking/Virtual_Networks.svg;" vertex="1" parent="left_spoke1_0">
          <mxGeometry x="374" y="3.39" width="20" height="20" as="geometry"/>
        </mxCell>
        <mxCell id="left_spoke1_0_subnet_0" style="shape=rectangle;rounded=0;whiteSpace=wrap;html=1;strokeColor=#C8C6C4;fontColor=#323130;fillColor=#FAF9F8;align=left" vertex="1" parent="left_spoke1_0" value="microservices 10.21.1.0/24">
          <mxGeometry x="25" y="55" width="350" height="20" as="geometry"/>
        </mxCell>
        <mxCell id="left_spoke1_0_subnet_0_icon" style="shape=image;html=1;image=img/lib/azure2/networking/Subnet.svg;" vertex="1" parent="left_spoke1_0">
          <mxGeometry x="355" y="58" width="20" height="12" as="geometry"/>
        </mxCell>
        <mxCell id="left_spoke1_0_subnet_0_udr" style="shape=image;html=1;image=img/lib/azure2/networking/Route_Tables.svg;" vertex="1" parent="left_spoke1_0">
          <mxGeometry x="336" y="57" width="16" height="16" as="geometry"/>
        </mxCell>
        <mxCell id="left_spoke1_0_subnet_0_nsg" style="shape=image;html=1;image=img/lib/azure2/networking/Network_Security_Groups.svg;" vertex="1" parent="left_spoke1_0">
          <mxGeometry x="317" y="57" width="16" height="16" as="geometry"/>
        </mxCell>
        <mxCell id="left_spoke1_0_subnet_1" style="shape=rectangle;rounded=0;whiteSpace=wrap;html=1;strokeColor=#C8C6C4;fontColor=#323130;fillColor=#FAF9F8;align=left" vertex="1" parent="left_spoke1_0" value="containers 10.21.2.0/24">
          <mxGeometry x="25" y="85" width="350" height="20" as="geometry"/>
        </mxCell>
        <mxCell id="left_spoke1_0_subnet_1_icon" style="shape=image;html=1;image=img/lib/azure2/networking/Subnet.svg;" vertex="1" parent="left_spoke1_0">
          <mxGeometry x="355" y="88" width="20" height="12" as="geometry"/>
        </mxCell>
        <mxCell id="left_spoke1_0_subnet_1_nsg" style="shape=image;html=1;image=img/lib/azure2/networking/Network_Security_Groups.svg;" vertex="1" parent="left_spoke1_0">
          <mxGeometry x="336" y="87" width="16" height="16" as="geometry"/>
        </mxCell>
        <mxCell id="edge_left_1_0_spoke21-vnet" edge="1" source="hub_1" target="left_spoke1_0" style="edgeStyle=orthogonalEdgeStyle;rounded=1;strokeColor=#0078D4;strokeWidth=2;endArrow=block;startArrow=block;" parent="1">
          <mxGeometry relative="1" as="geometry">
            <Array as="points">
              <mxPoint x="2370" y="220"/>
            </Array>
          </mxGeometry>
        </mxCell>
        <mxCell id="left_spoke1_1_group" value="" style="group" vertex="1" connectable="0" parent="1">
          <mxGeometry x="1820" y="350" width="400" height="105" as="geometry"/>
        </mxCell>
        <mxCell id="left_spoke1_1" style="shape=rectangle;rounded=0;whiteSpace=wrap;html=1;strokeColor=#CC6600;fontColor=#CC6600;fillColor=#f2f7fc;verticalAlign=top;align=left" vertex="1" parent="left_spoke1_1_group" value="Subscription: Spoke22-Subscription&#10;spoke22-vnet&#10;10.22.0.0/16">
          <mxGeometry x="0" y="0" width="400" height="85" as="geometry"/>
        </mxCell>
        <mxCell id="left_spoke1_1_image" style="shape=image;html=1;image=img/lib/azure2/networking/Virtual_Networks.svg;" vertex="1" parent="left_spoke1_1">
          <mxGeometry x="374" y="3.39" width="20" height="20" as="geometry"/>
        </mxCell>
        <mxCell id="left_spoke1_1_subnet_0" style="shape=rectangle;rounded=0;whiteSpace=wrap;html=1;strokeColor=#C8C6C4;fontColor=#323130;fillColor=#FAF9F8;align=left" vertex="1" parent="left_spoke1_1" value="blockchain 10.22.1.0/24">
          <mxGeometry x="25" y="55" width="350" height="20" as="geometry"/>
        </mxCell>
        <mxCell id="left_spoke1_1_subnet_0_icon" style="shape=image;html=1;image=img/lib/azure2/networking/Subnet.svg;" vertex="1" parent="left_spoke1_1">
          <mxGeometry x="355" y="58" width="20" height="12" as="geometry"/>
        </mxCell>
        <mxCell id="left_spoke1_1_subnet_0_udr" style="shape=image;html=1;image=img/lib/azure2/networking/Route_Tables.svg;" vertex="1" parent="left_spoke1_1">
          <mxGeometry x="336" y="57" width="16" height="16" as="geometry"/>
        </mxCell>
        <mxCell id="left_spoke1_1_subnet_0_nsg" style="shape=image;html=1;image=img/lib/azure2/networking/Network_Security_Groups.svg;" vertex="1" parent="left_spoke1_1">
          <mxGeometry x="317" y="57" width="16" height="16" as="geometry"/>
        </mxCell>
        <mxCell id="edge_left_1_1_spoke22-vnet" edge="1" source="hub_1" target="left_spoke1_1" style="edgeStyle=orthogonalEdgeStyle;rounded=1;strokeColor=#0078D4;strokeWidth=2;endArrow=block;startArrow=block;" parent="1">
          <mxGeometry relative="1" as="geometry">
            <Array as="points">
              <mxPoint x="2370" y="375"/>
            </Array>
          </mxGeometry>
        </mxCell>
        <mxCell id="left_spoke1_2_group" value="" style="group" vertex="1" connectable="0" parent="1">
          <mxGeometry x="1820" y="475" width="400" height="135" as="geometry"/>
        </mxCell>
        <mxCell id="left_spoke1_2" style="shape=rectangle;rounded=0;whiteSpace=wrap;html=1;strokeColor=#CC6600;fontColor=#CC6600;fillColor=#f2f7fc;verticalAlign=top;align=left" vertex="1" parent="left_spoke1_2_group" value="Subscription: Spoke23-Subscription&#10;spoke23-vnet&#10;10.23.0.0/16">
          <mxGeometry x="0" y="0" width="400" height="115" as="geometry"/>
        </mxCell>
        <mxCell id="left_spoke1_2_image" style="shape=image;html=1;image=img/lib/azure2/networking/Virtual_Networks.svg;" vertex="1" parent="left_spoke1_2">
          <mxGeometry x="374" y="3.39" width="20" height="20" as="geometry"/>
        </mxCell>
        <mxCell id="left_spoke1_2_subnet_0" style="shape=rectangle;rounded=0;whiteSpace=wrap;html=1;strokeColor=#C8C6C4;fontColor=#323130;fillColor=#FAF9F8;align=left" vertex="1" parent="left_spoke1_2" value="ai-inference 10.23.1.0/24">
          <mxGeometry x="25" y="55" width="350" height="20" as="geometry"/>
        </mxCell>
        <mxCell id="left_spoke1_2_subnet_0_icon" style="shape=image;html=1;image=img/lib/azure2/networking/Subnet.svg;" vertex="1" parent="left_spoke1_2">
          <mxGeometry x="355" y="58" width="20" height="12" as="geometry"/>
        </mxCell>
        <mxCell id="left_spoke1_2_subnet_0_nsg" style="shape=image;html=1;image=img/lib/azure2/networking/Network_Security_Groups.svg;" vertex="1" parent="left_spoke1_2">
          <mxGeometry x="336" y="57" width="16" height="16" as="geometry"/>
        </mxCell>
        <mxCell id="left_spoke1_2_subnet_1" style="shape=rectangle;rounded=0;whiteSpace=wrap;html=1;strokeColor=#C8C6C4;fontColor=#323130;fillColor=#FAF9F8;align=left" vertex="1" parent="left_spoke1_2" value="gpu-cluster 10.23.2.0/24">
          <mxGeometry x="25" y="85" width="350" height="20" as="geometry"/>
        </mxCell>
        <mxCell id="left_spoke1_2_subnet_1_icon" style="shape=image;html=1;image=img/lib/azure2/networking/Subnet.svg;" vertex="1" parent="left_spoke1_2">
          <mxGeometry x="355" y="88" width="20" height="12" as="geometry"/>
        </mxCell>
        <mxCell id="left_spoke1_2_subnet_1_udr" style="shape=image;html=1;image=img/lib/azure2/networking/Route_Tables.svg;" vertex="1" parent="left_spoke1_2">
          <mxGeometry x="336" y="87" width="16" height="16" as="geometry"/>
        </mxCell>
        <mxCell id="edge_left_1_2_spoke23-vnet" edge="1" source="hub_1" target="left_spoke1_2" style="edgeStyle=orthogonalEdgeStyle;rounded=1;strokeColor=#0078D4;strokeWidth=2;endArrow=block;startArrow=block;" parent="1">
          <mxGeometry relative="1" as="geometry">
            <Array as="points">
              <mxPoint x="2370" y="500"/>
            </Array>
          </mxGeometry>
        </mxCell>
        <mxCell id="left_spoke1_3_group" value="" style="group" vertex="1" connectable="0" parent="1">
          <mxGeometry x="1820" y="630" width="400" height="105" as="geometry"/>
        </mxCell>
        <mxCell id="left_spoke1_3" style="shape=rectangle;rounded=0;whiteSpace=wrap;html=1;strokeColor=#CC6600;fontColor=#CC6600;fillColor=#f2f7fc;verticalAlign=top;align=left" vertex="1" parent="left_spoke1_3_group" value="Subscription: Spoke24-Subscription&#10;spoke24-vnet&#10;10.24.0.0/16">
          <mxGeometry x="0" y="0" width="400" height="85" as="geometry"/>
        </mxCell>
        <mxCell id="left_spoke1_3_image" style="shape=image;html=1;image=img/lib/azure2/networking/Virtual_Networks.svg;" vertex="1" parent="left_spoke1_3">
          <mxGeometry x="374" y="3.39" width="20" height="20" as="geometry"/>
        </mxCell>
        <mxCell id="left_spoke1_3_subnet_0" style="shape=rectangle;rounded=0;whiteSpace=wrap;html=1;strokeColor=#C8C6C4;fontColor=#323130;fillColor=#FAF9F8;align=left" vertex="1" parent="left_spoke1_3" value="quantum-research 10.24.1.0/24">
          <mxGeometry x="25" y="55" width="350" height="20" as="geometry"/>
        </mxCell>
        <mxCell id="left_spoke1_3_subnet_0_icon" style="shape=image;html=1;image=img/lib/azure2/networking/Subnet.svg;" vertex="1" parent="left_spoke1_3">
          <mxGeometry x="355" y="58" width="20" height="12" as="geometry"/>
        </mxCell>
        <mxCell id="left_spoke1_3_subnet_0_udr" style="shape=image;html=1;image=img/lib/azure2/networking/Route_Tables.svg;" vertex="1" parent="left_spoke1_3">
          <mxGeometry x="336" y="57" width="16" height="16" as="geometry"/>
        </mxCell>
        <mxCell id="left_spoke1_3_subnet_0_nsg" style="shape=image;html=1;image=img/lib/azure2/networking/Network_Security_Groups.svg;" vertex="1" parent="left_spoke1_3">
          <mxGeometry x="317" y="57" width="16" height="16" as="geometry"/>
        </mxCell>
        <mxCell id="edge_left_1_3_spoke24-vnet" edge="1" source="hub_1" target="left_spoke1_3" style="edgeStyle=orthogonalEdgeStyle;rounded=1;strokeColor=#0078D4;strokeWidth=2;endArrow=block;startArrow=block;" parent="1">
          <mxGeometry relative="1" as="geometry">
            <Array as="points">
              <mxPoint x="2370" y="655"/>
            </Array>
          </mxGeometry>
        </mxCell>
        <mxCell id="left_spoke1_4_group" value="" style="group" vertex="1" connectable="0" parent="1">
          <mxGeometry x="1820" y="755" width="400" height="135" as="geometry"/>
        </mxCell>
        <mxCell id="left_spoke1_4" style="shape=rectangle;rounded=0;whiteSpace=wrap;html=1;strokeColor=#CC6600;fontColor=#CC6600;fillColor=#f2f7fc;verticalAlign=top;align=left" vertex="1" parent="left_spoke1_4_group" value="Subscription: Spoke25-Subscription&#10;spoke25-vnet&#10;10.25.0.0/16">
          <mxGeometry x="0" y="0" width="400" height="115" as="geometry"/>
        </mxCell>
        <mxCell id="left_spoke1_4_image" style="shape=image;html=1;image=img/lib/azure2/networking/Virtual_Networks.svg;" vertex="1" parent="left_spoke1_4">
          <mxGeometry x="374" y="3.39" width="20" height="20" as="geometry"/>
        </mxCell>
        <mxCell id="left_spoke1_4_subnet_0" style="shape=rectangle;rounded=0;whiteSpace=wrap;html=1;strokeColor=#C8C6C4;fontColor=#323130;fillColor=#FAF9F8;align=left" vertex="1" parent="left_spoke1_4" value="digital-twin 10.25.1.0/24">
          <mxGeometry x="25" y="55" width="350" height="20" as="geometry"/>
        </mxCell>
        <mxCell id="left_spoke1_4_subnet_0_icon" style="shape=image;html=1;image=img/lib/azure2/networking/Subnet.svg;" vertex="1" parent="left_spoke1_4">
          <mxGeometry x="355" y="58" width="20" height="12" as="geometry"/>
        </mxCell>
        <mxCell id="left_spoke1_4_subnet_0_nsg" style="shape=image;html=1;image=img/lib/azure2/networking/Network_Security_Groups.svg;" vertex="1" parent="left_spoke1_4">
          <mxGeometry x="336" y="57" width="16" height="16" as="geometry"/>
        </mxCell>
        <mxCell id="left_spoke1_4_subnet_1" style="shape=rectangle;rounded=0;whiteSpace=wrap;html=1;strokeColor=#C8C6C4;fontColor=#323130;fillColor=#FAF9F8;align=left" vertex="1" parent="left_spoke1_4" value="simulation 10.25.2.0/24">
          <mxGeometry x="25" y="85" width="350" height="20" as="geometry"/>
        </mxCell>
        <mxCell id="left_spoke1_4_subnet_1_icon" style="shape=image;html=1;image=img/lib/azure2/networking/Subnet.svg;" vertex="1" parent="left_spoke1_4">
          <mxGeometry x="355" y="88" width="20" height="12" as="geometry"/>
        </mxCell>
        <mxCell id="left_spoke1_4_subnet_1_udr" style="shape=image;html=1;image=img/lib/azure2/networking/Route_Tables.svg;" vertex="1" parent="left_spoke1_4">
          <mxGeometry x="336" y="87" width="16" height="16" as="geometry"/>
        </mxCell>
        <mxCell id="left_spoke1_4_subnet_1_nsg" style="shape=image;html=1;image=img/lib/azure2/networking/Network_Security_Groups.svg;" vertex="1" parent="left_spoke1_4">
          <mxGeometry x="317" y="87" width="16" height="16" as="geometry"/>
        </mxCell>
        <mxCell id="edge_left_1_4_spoke25-vnet" edge="1" source="hub_1" target="left_spoke1_4" style="edgeStyle=orthogonalEdgeStyle;rounded=1;strokeColor=#0078D4;strokeWidth=2;endArrow=block;startArrow=block;" parent="1">
          <mxGeometry relative="1" as="geometry">
            <Array as="points">
              <mxPoint x="2370" y="780"/>
            </Array>
          </mxGeometry>
        </mxCell>
        <mxCell id="left_spoke1_5_group" value="" style="group" vertex="1" connectable="0" parent="1">
          <mxGeometry x="1820" y="910" width="400" height="105" as="geometry"/>
        </mxCell>
        <mxCell id="left_spoke1_5" style="shape=rectangle;rounded=0;whiteSpace=wrap;html=1;strokeColor=#CC6600;fontColor=#CC6600;fillColor=#f2f7fc;verticalAlign=top;align=left" vertex="1" parent="left_spoke1_5_group" value="Subscription: Spoke26-Subscription&#10;spoke26-vnet&#10;10.26.0.0/16">
          <mxGeometry x="0" y="0" width="400" height="85" as="geometry"/>
        </mxCell>
        <mxCell id="left_spoke1_5_image" style="shape=image;html=1;image=img/lib/azure2/networking/Virtual_Networks.svg;" vertex="1" parent="left_spoke1_5">
          <mxGeometry x="374" y="3.39" width="20" height="20" as="geometry"/>
        </mxCell>
        <mxCell id="left_spoke1_5_vpn_image" style="shape=image;html=1;image=img/lib/azure2/networking/Virtual_Network_Gateways.svg;" vertex="1" parent="left_spoke1_5">
          <mxGeometry x="349" y="3.39" width="20" height="20" as="geometry"/>
        </mxCell>
        <mxCell id="left_spoke1_5_subnet_0" style="shape=rectangle;rounded=0;whiteSpace=wrap;html=1;strokeColor=#C8C6C4;fontColor=#323130;fillColor=#FAF9F8;align=left" vertex="1" parent="left_spoke1_5" value="ar-vr 10.26.1.0/24">
          <mxGeometry x="25" y="55" width="350" height="20" as="geometry"/>
        </mxCell>
        <mxCell id="left_spoke1_5_subnet_0_icon" style="shape=image;html=1;image=img/lib/azure2/networking/Subnet.svg;" vertex="1" parent="left_spoke1_5">
          <mxGeometry x="355" y="58" width="20" height="12" as="geometry"/>
        </mxCell>
        <mxCell id="left_spoke1_5_subnet_0_udr" style="shape=image;html=1;image=img/lib/azure2/networking/Route_Tables.svg;" vertex="1" parent="left_spoke1_5">
          <mxGeometry x="336" y="57" width="16" height="16" as="geometry"/>
        </mxCell>
        <mxCell id="left_spoke1_5_subnet_0_nsg" style="shape=image;html=1;image=img/lib/azure2/networking/Network_Security_Groups.svg;" vertex="1" parent="left_spoke1_5">
          <mxGeometry x="317" y="57" width="16" height="16" as="geometry"/>
        </mxCell>
        <mxCell id="edge_left_1_5_spoke26-vnet" edge="1" source="hub_1" target="left_spoke1_5" style="edgeStyle=orthogonalEdgeStyle;rounded=1;strokeColor=#0078D4;strokeWidth=2;endArrow=block;startArrow=block;" parent="1">
          <mxGeometry relative="1" as="geometry">
            <Array as="points">
              <mxPoint x="2370" y="935"/>
            </Array>
          </mxGeometry>
        </mxCell>
        <mxCell id="nonpeered_spoke0_group" value="" style="group" vertex="1" connectable="0" parent="1">
          <mxGeometry x="20" y="1715" width="400" height="105" as="geometry"/>
        </mxCell>
        <mxCell id="nonpeered_spoke0" style="shape=rectangle;rounded=0;whiteSpace=wrap;html=1;strokeColor=gray;fontColor=gray;fillColor=#f5f5f5;verticalAlign=top;align=left" vertex="1" parent="nonpeered_spoke0_group" value="Subscription: Unpeered1-Subscription&#10;unpeered1-vnet&#10;10.51.0.0/16">
          <mxGeometry x="0" y="0" width="400" height="85" as="geometry"/>
        </mxCell>
        <mxCell id="nonpeered_spoke0_image" style="shape=image;html=1;image=img/lib/azure2/networking/Virtual_Networks.svg;" vertex="1" parent="nonpeered_spoke0">
          <mxGeometry x="374" y="3.39" width="20" height="20" as="geometry"/>
        </mxCell>
        <mxCell id="nonpeered_spoke0_subnet_0" style="shape=rectangle;rounded=0;whiteSpace=wrap;html=1;strokeColor=#C8C6C4;fontColor=#323130;fillColor=#FAF9F8;align=left" vertex="1" parent="nonpeered_spoke0" value="isolated-dev 10.51.1.0/24">
          <mxGeometry x="25" y="55" width="350" height="20" as="geometry"/>
        </mxCell>
        <mxCell id="nonpeered_spoke0_subnet_0_icon" style="shape=image;html=1;image=img/lib/azure2/networking/Subnet.svg;" vertex="1" parent="nonpeered_spoke0">
          <mxGeometry x="355" y="58" width="20" height="12" as="geometry"/>
        </mxCell>
        <mxCell id="nonpeered_spoke1_group" value="" style="group" vertex="1" connectable="0" parent="1">
          <mxGeometry x="470" y="1715" width="400" height="105" as="geometry"/>
        </mxCell>
        <mxCell id="nonpeered_spoke1" style="shape=rectangle;rounded=0;whiteSpace=wrap;html=1;strokeColor=gray;fontColor=gray;fillColor=#f5f5f5;verticalAlign=top;align=left" vertex="1" parent="nonpeered_spoke1_group" value="Subscription: Unpeered2-Subscription&#10;unpeered2-vnet&#10;10.52.0.0/16">
          <mxGeometry x="0" y="0" width="400" height="85" as="geometry"/>
        </mxCell>
        <mxCell id="nonpeered_spoke1_image" style="shape=image;html=1;image=img/lib/azure2/networking/Virtual_Networks.svg;" vertex="1" parent="nonpeered_spoke1">
          <mxGeometry x="374" y="3.39" width="20" height="20" as="geometry"/>
        </mxCell>
        <mxCell id="nonpeered_spoke1_subnet_0" style="shape=rectangle;rounded=0;whiteSpace=wrap;html=1;strokeColor=#C8C6C4;fontColor=#323130;fillColor=#FAF9F8;align=left" vertex="1" parent="nonpeered_spoke1" value="sandbox 10.52.1.0/24">
          <mxGeometry x="25" y="55" width="350" height="20" as="geometry"/>
        </mxCell>
        <mxCell id="nonpeered_spoke1_subnet_0_icon" style="shape=image;html=1;image=img/lib/azure2/networking/Subnet.svg;" vertex="1" parent="nonpeered_spoke1">
          <mxGeometry x="355" y="58" width="20" height="12" as="geometry"/>
        </mxCell>
        <mxCell id="nonpeered_spoke1_subnet_0_nsg" style="shape=image;html=1;image=img/lib/azure2/networking/Network_Security_Groups.svg;" vertex="1" parent="nonpeered_spoke1">
          <mxGeometry x="336" y="57" width="16" height="16" as="geometry"/>
        </mxCell>
        <mxCell id="nonpeered_spoke2_group" value="" style="group" vertex="1" connectable="0" parent="1">
          <mxGeometry x="920" y="1715" width="400" height="105" as="geometry"/>
        </mxCell>
        <mxCell id="nonpeered_spoke2" style="shape=rectangle;rounded=0;whiteSpace=wrap;html=1;strokeColor=gray;fontColor=gray;fillColor=#f5f5f5;verticalAlign=top;align=left" vertex="1" parent="nonpeered_spoke2_group" value="Subscription: Unpeered3-Subscription&#10;unpeered3-vnet&#10;10.53.0.0/16">
          <mxGeometry x="0" y="0" width="400" height="85" as="geometry"/>
        </mxCell>
        <mxCell id="nonpeered_spoke2_image" style="shape=image;html=1;image=img/lib/azure2/networking/Virtual_Networks.svg;" vertex="1" parent="nonpeered_spoke2">
          <mxGeometry x="374" y="3.39" width="20" height="20" as="geometry"/>
        </mxCell>
        <mxCell id="nonpeered_spoke2_subnet_0" style="shape=rectangle;rounded=0;whiteSpace=wrap;html=1;strokeColor=#C8C6C4;fontColor=#323130;fillColor=#FAF9F8;align=left" vertex="1" parent="nonpeered_spoke2" value="legacy-system 10.53.1.0/24">
          <mxGeometry x="25" y="55" width="350" height="20" as="geometry"/>
        </mxCell>
        <mxCell id="nonpeered_spoke2_subnet_0_icon" style="shape=image;html=1;image=img/lib/azure2/networking/Subnet.svg;" vertex="1" parent="nonpeered_spoke2">
          <mxGeometry x="355" y="58" width="20" height="12" as="geometry"/>
        </mxCell>
        <mxCell id="nonpeered_spoke2_subnet_0_udr" style="shape=image;html=1;image=img/lib/azure2/networking/Route_Tables.svg;" vertex="1" parent="nonpeered_spoke2">
          <mxGeometry x="336" y="57" width="16" height="16" as="geometry"/>
        </mxCell>
        <mxCell id="nonpeered_spoke2_subnet_0_nsg" style="shape=image;html=1;image=img/lib/azure2/networking/Network_Security_Groups.svg;" vertex="1" parent="nonpeered_spoke2">
          <mxGeometry x="317" y="57" width="16" height="16" as="geometry"/>
        </mxCell>
        <mxCell id="nonpeered_spoke3_group" value="" style="group" vertex="1" connectable="0" parent="1">
          <mxGeometry x="1370" y="1715" width="400" height="105" as="geometry"/>
        </mxCell>
        <mxCell id="nonpeered_spoke3" style="shape=rectangle;rounded=0;whiteSpace=wrap;html=1;strokeColor=gray;fontColor=gray;fillColor=#f5f5f5;verticalAlign=top;align=left" vertex="1" parent="nonpeered_spoke3_group" value="Subscription: Unpeered4-Subscription&#10;unpeered4-vnet&#10;10.54.0.0/16">
          <mxGeometry x="0" y="0" width="400" height="85" as="geometry"/>
        </mxCell>
        <mxCell id="nonpeered_spoke3_image" style="shape=image;html=1;image=img/lib/azure2/networking/Virtual_Networks.svg;" vertex="1" parent="nonpeered_spoke3">
          <mxGeometry x="374" y="3.39" width="20" height="20" as="geometry"/>
        </mxCell>
        <mxCell id="nonpeered_spoke3_subnet_0" style="shape=rectangle;rounded=0;whiteSpace=wrap;html=1;strokeColor=#C8C6C4;fontColor=#323130;fillColor=#FAF9F8;align=left" vertex="1" parent="nonpeered_spoke3" value="experimental 10.54.1.0/24">
          <mxGeometry x="25" y="55" width="350" height="20" as="geometry"/>
        </mxCell>
        <mxCell id="nonpeered_spoke3_subnet_0_icon" style="shape=image;html=1;image=img/lib/azure2/networking/Subnet.svg;" vertex="1" parent="nonpeered_spoke3">
          <mxGeometry x="355" y="58" width="20" height="12" as="geometry"/>
        </mxCell>
        <mxCell id="nonpeered_spoke3_subnet_0_udr" style="shape=image;html=1;image=img/lib/azure2/networking/Route_Tables.svg;" vertex="1" parent="nonpeered_spoke3">
          <mxGeometry x="336" y="57" width="16" height="16" as="geometry"/>
        </mxCell>
        <mxCell id="nonpeered_spoke4_group" value="" style="group" vertex="1" connectable="0" parent="1">
          <mxGeometry x="1820" y="1715" width="400" height="105" as="geometry"/>
        </mxCell>
        <mxCell id="nonpeered_spoke4" style="shape=rectangle;rounded=0;whiteSpace=wrap;html=1;strokeColor=gray;fontColor=gray;fillColor=#f5f5f5;verticalAlign=top;align=left" vertex="1" parent="nonpeered_spoke4_group" value="Subscription: Unpeered5-Subscription&#10;unpeered5-vnet&#10;10.55.0.0/16">
          <mxGeometry x="0" y="0" width="400" height="85" as="geometry"/>
        </mxCell>
        <mxCell id="nonpeered_spoke4_image" style="shape=image;html=1;image=img/lib/azure2/networking/Virtual_Networks.svg;" vertex="1" parent="nonpeered_spoke4">
          <mxGeometry x="374" y="3.39" width="20" height="20" as="geometry"/>
        </mxCell>
        <mxCell id="nonpeered_spoke4_subnet_0" style="shape=rectangle;rounded=0;whiteSpace=wrap;html=1;strokeColor=#C8C6C4;fontColor=#323130;fillColor=#FAF9F8;align=left" vertex="1" parent="nonpeered_spoke4" value="temporary 10.55.1.0/24">
          <mxGeometry x="25" y="55" width="350" height="20" as="geometry"/>
        </mxCell>
        <mxCell id="nonpeered_spoke4_subnet_0_icon" style="shape=image;html=1;image=img/lib/azure2/networking/Subnet.svg;" vertex="1" parent="nonpeered_spoke4">
          <mxGeometry x="355" y="58" width="20" height="12" as="geometry"/>
        </mxCell>
        <mxCell id="nonpeered_spoke4_subnet_0_nsg" style="shape=image;html=1;image=img/lib/azure2/networking/Network_Security_Groups.svg;" vertex="1" parent="nonpeered_spoke4">
          <mxGeometry x="336" y="57" width="16" height="16" as="geometry"/>
        </mxCell>
        <mxCell id="nonpeered_spoke5_group" value="" style="group" vertex="1" connectable="0" parent="1">
          <mxGeometry x="2270" y="1715" width="400" height="105" as="geometry"/>
        </mxCell>
        <mxCell id="nonpeered_spoke5" style="shape=rectangle;rounded=0;whiteSpace=wrap;html=1;strokeColor=gray;fontColor=gray;fillColor=#f5f5f5;verticalAlign=top;align=left" vertex="1" parent="nonpeered_spoke5_group" value="Subscription: Unpeered6-Subscription&#10;unpeered6-vnet&#10;10.56.0.0/16">
          <mxGeometry x="0" y="0" width="400" height="85" as="geometry"/>
        </mxCell>
        <mxCell id="nonpeered_spoke5_image" style="shape=image;html=1;image=img/lib/azure2/networking/Virtual_Networks.svg;" vertex="1" parent="nonpeered_spoke5">
          <mxGeometry x="374" y="3.39" width="20" height="20" as="geometry"/>
        </mxCell>
        <mxCell id="nonpeered_spoke5_subnet_0" style="shape=rectangle;rounded=0;whiteSpace=wrap;html=1;strokeColor=#C8C6C4;fontColor=#323130;fillColor=#FAF9F8;align=left" vertex="1" parent="nonpeered_spoke5" value="research 10.56.1.0/24">
          <mxGeometry x="25" y="55" width="350" height="20" as="geometry"/>
        </mxCell>
        <mxCell id="nonpeered_spoke5_subnet_0_icon" style="shape=image;html=1;image=img/lib/azure2/networking/Subnet.svg;" vertex="1" parent="nonpeered_spoke5">
          <mxGeometry x="355" y="58" width="20" height="12" as="geometry"/>
        </mxCell>
        <mxCell id="nonpeered_spoke5_subnet_0_udr" style="shape=image;html=1;image=img/lib/azure2/networking/Route_Tables.svg;" vertex="1" parent="nonpeered_spoke5">
          <mxGeometry x="336" y="57" width="16" height="16" as="geometry"/>
        </mxCell>
        <mxCell id="nonpeered_spoke5_subnet_0_nsg" style="shape=image;html=1;image=img/lib/azure2/networking/Network_Security_Groups.svg;" vertex="1" parent="nonpeered_spoke5">
          <mxGeometry x="317" y="57" width="16" height="16" as="geometry"/>
        </mxCell>
        <mxCell id="nonpeered_spoke6_group" value="" style="group" vertex="1" connectable="0" parent="1">
          <mxGeometry x="20" y="1835" width="400" height="105" as="geometry"/>
        </mxCell>
        <mxCell id="nonpeered_spoke6" style="shape=rectangle;rounded=0;whiteSpace=wrap;html=1;strokeColor=gray;fontColor=gray;fillColor=#f5f5f5;verticalAlign=top;align=left" vertex="1" parent="nonpeered_spoke6_group" value="Subscription: Unpeered7-Subscription&#10;unpeered7-vnet&#10;10.57.0.0/16">
          <mxGeometry x="0" y="0" width="400" height="85" as="geometry"/>
        </mxCell>
        <mxCell id="nonpeered_spoke6_image" style="shape=image;html=1;image=img/lib/azure2/networking/Virtual_Networks.svg;" vertex="1" parent="nonpeered_spoke6">
          <mxGeometry x="374" y="3.39" width="20" height="20" as="geometry"/>
        </mxCell>
        <mxCell id="nonpeered_spoke6_subnet_0" style="shape=rectangle;rounded=0;whiteSpace=wrap;html=1;strokeColor=#C8C6C4;fontColor=#323130;fillColor=#FAF9F8;align=left" vertex="1" parent="nonpeered_spoke6" value="prototype 10.57.1.0/24">
          <mxGeometry x="25" y="55" width="350" height="20" as="geometry"/>
        </mxCell>
        <mxCell id="nonpeered_spoke6_subnet_0_icon" style="shape=image;html=1;image=img/lib/azure2/networking/Subnet.svg;" vertex="1" parent="nonpeered_spoke6">
          <mxGeometry x="355" y="58" width="20" height="12" as="geometry"/>
        </mxCell>
        <mxCell id="nonpeered_spoke7_group" value="" style="group" vertex="1" connectable="0" parent="1">
          <mxGeometry x="470" y="1835" width="400" height="135" as="geometry"/>
        </mxCell>
        <mxCell id="nonpeered_spoke7" style="shape=rectangle;rounded=0;whiteSpace=wrap;html=1;strokeColor=gray;fontColor=gray;fillColor=#f5f5f5;verticalAlign=top;align=left" vertex="1" parent="nonpeered_spoke7_group" value="Subscription: Unpeered8-Subscription&#10;unpeered8-vnet&#10;10.58.0.0/16">
          <mxGeometry x="0" y="0" width="400" height="115" as="geometry"/>
        </mxCell>
        <mxCell id="nonpeered_spoke7_image" style="shape=image;html=1;image=img/lib/azure2/networking/Virtual_Networks.svg;" vertex="1" parent="nonpeered_spoke7">
          <mxGeometry x="374" y="3.39" width="20" height="20" as="geometry"/>
        </mxCell>
        <mxCell id="nonpeered_spoke7_subnet_0" style="shape=rectangle;rounded=0;whiteSpace=wrap;html=1;strokeColor=#C8C6C4;fontColor=#323130;fillColor=#FAF9F8;align=left" vertex="1" parent="nonpeered_spoke7" value="migration 10.58.1.0/24">
          <mxGeometry x="25" y="55" width="350" height="20" as="geometry"/>
        </mxCell>
        <mxCell id="nonpeered_spoke7_subnet_0_icon" style="shape=image;html=1;image=img/lib/azure2/networking/Subnet.svg;" vertex="1" parent="nonpeered_spoke7">
          <mxGeometry x="355" y="58" width="20" height="12" as="geometry"/>
        </mxCell>
        <mxCell id="nonpeered_spoke7_subnet_0_nsg" style="shape=image;html=1;image=img/lib/azure2/networking/Network_Security_Groups.svg;" vertex="1" parent="nonpeered_spoke7">
          <mxGeometry x="336" y="57" width="16" height="16" as="geometry"/>
        </mxCell>
        <mxCell id="nonpeered_spoke7_subnet_1" style="shape=rectangle;rounded=0;whiteSpace=wrap;html=1;strokeColor=#C8C6C4;fontColor=#323130;fillColor=#FAF9F8;align=left" vertex="1" parent="nonpeered_spoke7" value="backup-target 10.58.2.0/24">
          <mxGeometry x="25" y="85" width="350" height="20" as="geometry"/>
        </mxCell>
        <mxCell id="nonpeered_spoke7_subnet_1_icon" style="shape=image;html=1;image=img/lib/azure2/networking/Subnet.svg;" vertex="1" parent="nonpeered_spoke7">
          <mxGeometry x="355" y="88" width="20" height="12" as="geometry"/>
        </mxCell>
        <mxCell id="nonpeered_spoke7_subnet_1_udr" style="shape=image;html=1;image=img/lib/azure2/networking/Route_Tables.svg;" vertex="1" parent="nonpeered_spoke7">
          <mxGeometry x="336" y="87" width="16" height="16" as="geometry"/>
        </mxCell>
        <mxCell id="nonpeered_spoke8_group" value="" style="group" vertex="1" connectable="0" parent="1">
          <mxGeometry x="920" y="1835" width="400" height="105" as="geometry"/>
        </mxCell>
        <mxCell id="nonpeered_spoke8" style="shape=rectangle;rounded=0;whiteSpace=wrap;html=1;strokeColor=gray;fontColor=gray;fillColor=#f5f5f5;verticalAlign=top;align=left" vertex="1" parent="nonpeered_spoke8_group" value="Subscription: Unpeered9-Subscription&#10;unpeered9-vnet&#10;10.59.0.0/16">
          <mxGeometry x="0" y="0" width="400" height="85" as="geometry"/>
        </mxCell>
        <mxCell id="nonpeered_spoke8_image" style="shape=image;html=1;image=img/lib/azure2/networking/Virtual_Networks.svg;" vertex="1" parent="nonpeered_spoke8">
          <mxGeometry x="374" y="3.39" width="20" height="20" as="geometry"/>
        </mxCell>
        <mxCell id="nonpeered_spoke8_subnet_0" style="shape=rectangle;rounded=0;whiteSpace=wrap;html=1;strokeColor=#C8C6C4;fontColor=#323130;fillColor=#FAF9F8;align=left" vertex="1" parent="nonpeered_spoke8" value="compliance 10.59.1.0/24">
          <mxGeometry x="25" y="55" width="350" height="20" as="geometry"/>
        </mxCell>
        <mxCell id="nonpeered_spoke8_subnet_0_icon" style="shape=image;html=1;image=img/lib/azure2/networking/Subnet.svg;" vertex="1" parent="nonpeered_spoke8">
          <mxGeometry x="355" y="58" width="20" height="12" as="geometry"/>
        </mxCell>
        <mxCell id="nonpeered_spoke8_subnet_0_udr" style="shape=image;html=1;image=img/lib/azure2/networking/Route_Tables.svg;" vertex="1" parent="nonpeered_spoke8">
          <mxGeometry x="336" y="57" width="16" height="16" as="geometry"/>
        </mxCell>
        <mxCell id="nonpeered_spoke8_subnet_0_nsg" style="shape=image;html=1;image=img/lib/azure2/networking/Network_Security_Groups.svg;" vertex="1" parent="nonpeered_spoke8">
          <mxGeometry x="317" y="57" width="16" height="16" as="geometry"/>
        </mxCell>
        <mxCell id="nonpeered_spoke9_group" value="" style="group" vertex="1" connectable="0" parent="1">
          <mxGeometry x="1370" y="1835" width="400" height="105" as="geometry"/>
        </mxCell>
        <mxCell id="nonpeered_spoke9" style="shape=rectangle;rounded=0;whiteSpace=wrap;html=1;strokeColor=gray;fontColor=gray;fillColor=#f5f5f5;verticalAlign=top;align=left" vertex="1" parent="nonpeered_spoke9_group" value="Subscription: Unpeered10-Subscription&#10;unpeered10-vnet&#10;10.60.0.0/16">
          <mxGeometry x="0" y="0" width="400" height="85" as="geometry"/>
        </mxCell>
        <mxCell id="nonpeered_spoke9_image" style="shape=image;html=1;image=img/lib/azure2/networking/Virtual_Networks.svg;" vertex="1" parent="nonpeered_spoke9">
          <mxGeometry x="374" y="3.39" width="20" height="20" as="geometry"/>
        </mxCell>
        <mxCell id="nonpeered_spoke9_subnet_0" style="shape=rectangle;rounded=0;whiteSpace=wrap;html=1;strokeColor=#C8C6C4;fontColor=#323130;fillColor=#FAF9F8;align=left" vertex="1" parent="nonpeered_spoke9" value="audit 10.60.1.0/24">
          <mxGeometry x="25" y="55" width="350" height="20" as="geometry"/>
        </mxCell>
        <mxCell id="nonpeered_spoke9_subnet_0_icon" style="shape=image;html=1;image=img/lib/azure2/networking/Subnet.svg;" vertex="1" parent="nonpeered_spoke9">
          <mxGeometry x="355" y="58" width="20" height="12" as="geometry"/>
        </mxCell>
        <mxCell id="nonpeered_spoke9_subnet_0_nsg" style="shape=image;html=1;image=img/lib/azure2/networking/Network_Security_Groups.svg;" vertex="1" parent="nonpeered_spoke9">
          <mxGeometry x="336" y="57" width="16" height="16" as="geometry"/>
        </mxCell>
        <mxCell id="nonpeered_spoke10_group" value="" style="group" vertex="1" connectable="0" parent="1">
          <mxGeometry x="1820" y="1835" width="400" height="135" as="geometry"/>
        </mxCell>
        <mxCell id="nonpeered_spoke10" style="shape=rectangle;rounded=0;whiteSpace=wrap;html=1;strokeColor=gray;fontColor=gray;fillColor=#f5f5f5;verticalAlign=top;align=left" vertex="1" parent="nonpeered_spoke10_group" value="Subscription: Unpeered11-Subscription&#10;unpeered11-vnet&#10;10.61.0.0/16">
          <mxGeometry x="0" y="0" width="400" height="115" as="geometry"/>
        </mxCell>
        <mxCell id="nonpeered_spoke10_image" style="shape=image;html=1;image=img/lib/azure2/networking/Virtual_Networks.svg;" vertex="1" parent="nonpeered_spoke10">
          <mxGeometry x="374" y="3.39" width="20" height="20" as="geometry"/>
        </mxCell>
        <mxCell id="nonpeered_spoke10_subnet_0" style="shape=rectangle;rounded=0;whiteSpace=wrap;html=1;strokeColor=#C8C6C4;fontColor=#323130;fillColor=#FAF9F8;align=left" vertex="1" parent="nonpeered_spoke10" value="archive 10.61.1.0/24">
          <mxGeometry x="25" y="55" width="350" height="20" as="geometry"/>
        </mxCell>
        <mxCell id="nonpeered_spoke10_subnet_0_icon" style="shape=image;html=1;image=img/lib/azure2/networking/Subnet.svg;" vertex="1" parent="nonpeered_spoke10">
          <mxGeometry x="355" y="58" width="20" height="12" as="geometry"/>
        </mxCell>
        <mxCell id="nonpeered_spoke10_subnet_0_udr" style="shape=image;html=1;image=img/lib/azure2/networking/Route_Tables.svg;" vertex="1" parent="nonpeered_spoke10">
          <mxGeometry x="336" y="57" width="16" height="16" as="geometry"/>
        </mxCell>
        <mxCell id="nonpeered_spoke10_subnet_1" style="shape=rectangle;rounded=0;whiteSpace=wrap;html=1;strokeColor=#C8C6C4;fontColor=#323130;fillColor=#FAF9F8;align=left" vertex="1" parent="nonpeered_spoke10" value="cold-storage 10.61.2.0/24">
          <mxGeometry x="25" y="85" width="350" height="20" as="geometry"/>
        </mxCell>
        <mxCell id="nonpeered_spoke10_subnet_1_icon" style="shape=image;html=1;image=img/lib/azure2/networking/Subnet.svg;" vertex="1" parent="nonpeered_spoke10">
          <mxGeometry x="355" y="88" width="20" height="12" as="geometry"/>
        </mxCell>
        <mxCell id="nonpeered_spoke10_subnet_1_nsg" style="shape=image;html=1;image=img/lib/azure2/networking/Network_Security_Groups.svg;" vertex="1" parent="nonpeered_spoke10">
          <mxGeometry x="336" y="87" width="16" height="16" as="geometry"/>
        </mxCell>
        <mxCell id="nonpeered_spoke11_group" value="" style="group" vertex="1" connectable="0" parent="1">
          <mxGeometry x="2270" y="1835" width="400" height="105" as="geometry"/>
        </mxCell>
        <mxCell id="nonpeered_spoke11" style="shape=rectangle;rounded=0;whiteSpace=wrap;html=1;strokeColor=gray;fontColor=gray;fillColor=#f5f5f5;verticalAlign=top;align=left" vertex="1" parent="nonpeered_spoke11_group" value="Subscription: Unpeered12-Subscription&#10;unpeered12-vnet&#10;10.62.0.0/16">
          <mxGeometry x="0" y="0" width="400" height="85" as="geometry"/>
        </mxCell>
        <mxCell id="nonpeered_spoke11_image" style="shape=image;html=1;image=img/lib/azure2/networking/Virtual_Networks.svg;" vertex="1" parent="nonpeered_spoke11">
          <mxGeometry x="374" y="3.39" width="20" height="20" as="geometry"/>
        </mxCell>
        <mxCell id="nonpeered_spoke11_subnet_0" style="shape=rectangle;rounded=0;whiteSpace=wrap;html=1;strokeColor=#C8C6C4;fontColor=#323130;fillColor=#FAF9F8;align=left" vertex="1" parent="nonpeered_spoke11" value="disaster-recovery 10.62.1.0/24">
          <mxGeometry x="25" y="55" width="350" height="20" as="geometry"/>
        </mxCell>
        <mxCell id="nonpeered_spoke11_subnet_0_icon" style="shape=image;html=1;image=img/lib/azure2/networking/Subnet.svg;" vertex="1" parent="nonpeered_spoke11">
          <mxGeometry x="355" y="58" width="20" height="12" as="geometry"/>
        </mxCell>
        <mxCell id="nonpeered_spoke11_subnet_0_udr" style="shape=image;html=1;image=img/lib/azure2/networking/Route_Tables.svg;" vertex="1" parent="nonpeered_spoke11">
          <mxGeometry x="336" y="57" width="16" height="16" as="geometry"/>
        </mxCell>
        <mxCell id="nonpeered_spoke11_subnet_0_nsg" style="shape=image;html=1;image=img/lib/azure2/networking/Network_Security_Groups.svg;" vertex="1" parent="nonpeered_spoke11">
          <mxGeometry x="317" y="57" width="16" height="16" as="geometry"/>
        </mxCell>
        <mxCell id="nonpeered_spoke12_group" value="" style="group" vertex="1" connectable="0" parent="1">
          <mxGeometry x="20" y="1955" width="400" height="105" as="geometry"/>
        </mxCell>
        <mxCell id="nonpeered_spoke12" style="shape=rectangle;rounded=0;whiteSpace=wrap;html=1;strokeColor=gray;fontColor=gray;fillColor=#f5f5f5;verticalAlign=top;align=left" vertex="1" parent="nonpeered_spoke12_group" value="Subscription: Unpeered13-Subscription&#10;unpeered13-vnet&#10;10.63.0.0/16">
          <mxGeometry x="0" y="0" width="400" height="85" as="geometry"/>
        </mxCell>
        <mxCell id="nonpeered_spoke12_image" style="shape=image;html=1;image=img/lib/azure2/networking/Virtual_Networks.svg;" vertex="1" parent="nonpeered_spoke12">
          <mxGeometry x="374" y="3.39" width="20" height="20" as="geometry"/>
        </mxCell>
        <mxCell id="nonpeered_spoke12_subnet_0" style="shape=rectangle;rounded=0;whiteSpace=wrap;html=1;strokeColor=#C8C6C4;fontColor=#323130;fillColor=#FAF9F8;align=left" vertex="1" parent="nonpeered_spoke12" value="guest-network 10.63.1.0/24">
          <mxGeometry x="25" y="55" width="350" height="20" as="geometry"/>
        </mxCell>
        <mxCell id="nonpeered_spoke12_subnet_0_icon" style="shape=image;html=1;image=img/lib/azure2/networking/Subnet.svg;" vertex="1" parent="nonpeered_spoke12">
          <mxGeometry x="355" y="58" width="20" height="12" as="geometry"/>
        </mxCell>
        <mxCell id="nonpeered_spoke12_subnet_0_nsg" style="shape=image;html=1;image=img/lib/azure2/networking/Network_Security_Groups.svg;" vertex="1" parent="nonpeered_spoke12">
          <mxGeometry x="336" y="57" width="16" height="16" as="geometry"/>
        </mxCell>
        <mxCell id="nonpeered_spoke13_group" value="" style="group" vertex="1" connectable="0" parent="1">
          <mxGeometry x="470" y="1955" width="400" height="135" as="geometry"/>
        </mxCell>
        <mxCell id="nonpeered_spoke13" style="shape=rectangle;rounded=0;whiteSpace=wrap;html=1;strokeColor=gray;fontColor=gray;fillColor=#f5f5f5;verticalAlign=top;align=left" vertex="1" parent="nonpeered_spoke13_group" value="Subscription: Unpeered14-Subscription&#10;unpeered14-vnet&#10;10.64.0.0/16">
          <mxGeometry x="0" y="0" width="400" height="115" as="geometry"/>
        </mxCell>
        <mxCell id="nonpeered_spoke13_image" style="shape=image;html=1;image=img/lib/azure2/networking/Virtual_Networks.svg;" vertex="1" parent="nonpeered_spoke13">
          <mxGeometry x="374" y="3.39" width="20" height="20" as="geometry"/>
        </mxCell>
        <mxCell id="nonpeered_spoke13_subnet_0" style="shape=rectangle;rounded=0;whiteSpace=wrap;html=1;strokeColor=#C8C6C4;fontColor=#323130;fillColor=#FAF9F8;align=left" vertex="1" parent="nonpeered_spoke13" value="quarantine 10.64.1.0/24">
          <mxGeometry x="25" y="55" width="350" height="20" as="geometry"/>
        </mxCell>
        <mxCell id="nonpeered_spoke13_subnet_0_icon" style="shape=image;html=1;image=img/lib/azure2/networking/Subnet.svg;" vertex="1" parent="nonpeered_spoke13">
          <mxGeometry x="355" y="58" width="20" height="12" as="geometry"/>
        </mxCell>
        <mxCell id="nonpeered_spoke13_subnet_0_udr" style="shape=image;html=1;image=img/lib/azure2/networking/Route_Tables.svg;" vertex="1" parent="nonpeered_spoke13">
          <mxGeometry x="336" y="57" width="16" height="16" as="geometry"/>
        </mxCell>
        <mxCell id="nonpeered_spoke13_subnet_0_nsg" style="shape=image;html=1;image=img/lib/azure2/networking/Network_Security_Groups.svg;" vertex="1" parent="nonpeered_spoke13">
          <mxGeometry x="317" y="57" width="16" height="16" as="geometry"/>
        </mxCell>
        <mxCell id="nonpeered_spoke13_subnet_1" style="shape=rectangle;rounded=0;whiteSpace=wrap;html=1;strokeColor=#C8C6C4;fontColor=#323130;fillColor=#FAF9F8;align=left" vertex="1" parent="nonpeered_spoke13" value="isolation 10.64.2.0/24">
          <mxGeometry x="25" y="85" width="350" height="20" as="geometry"/>
        </mxCell>
        <mxCell id="nonpeered_spoke13_subnet_1_icon" style="shape=image;html=1;image=img/lib/azure2/networking/Subnet.svg;" vertex="1" parent="nonpeered_spoke13">
          <mxGeometry x="355" y="88" width="20" height="12" as="geometry"/>
        </mxCell>
        <mxCell id="nonpeered_spoke13_subnet_1_udr" style="shape=image;html=1;image=img/lib/azure2/networking/Route_Tables.svg;" vertex="1" parent="nonpeered_spoke13">
          <mxGeometry x="336" y="87" width="16" height="16" as="geometry"/>
        </mxCell>
        <mxCell id="nonpeered_spoke14_group" value="" style="group" vertex="1" connectable="0" parent="1">
          <mxGeometry x="920" y="1955" width="400" height="105" as="geometry"/>
        </mxCell>
        <mxCell id="nonpeered_spoke14" style="shape=rectangle;rounded=0;whiteSpace=wrap;html=1;strokeColor=gray;fontColor=gray;fillColor=#f5f5f5;verticalAlign=top;align=left" vertex="1" parent="nonpeered_spoke14_group" value="Subscription: Unpeered15-Subscription&#10;unpeered15-vnet&#10;10.65.0.0/16">
          <mxGeometry x="0" y="0" width="400" height="85" as="geometry"/>
        </mxCell>
        <mxCell id="nonpeered_spoke14_image" style="shape=image;html=1;image=img/lib/azure2/networking/Virtual_Networks.svg;" vertex="1" parent="nonpeered_spoke14">
          <mxGeometry x="374" y="3.39" width="20" height="20" as="geometry"/>
        </mxCell>
        <mxCell id="nonpeered_spoke14_subnet_0" style="shape=rectangle;rounded=0;whiteSpace=wrap;html=1;strokeColor=#C8C6C4;fontColor=#323130;fillColor=#FAF9F8;align=left" vertex="1" parent="nonpeered_spoke14" value="vendor-access 10.65.1.0/24">
          <mxGeometry x="25" y="55" width="350" height="20" as="geometry"/>
        </mxCell>
        <mxCell id="nonpeered_spoke14_subnet_0_icon" style="shape=image;html=1;image=img/lib/azure2/networking/Subnet.svg;" vertex="1" parent="nonpeered_spoke14">
          <mxGeometry x="355" y="58" width="20" height="12" as="geometry"/>
        </mxCell>
        <mxCell id="nonpeered_spoke14_subnet_0_udr" style="shape=image;html=1;image=img/lib/azure2/networking/Route_Tables.svg;" vertex="1" parent="nonpeered_spoke14">
          <mxGeometry x="336" y="57" width="16" height="16" as="geometry"/>
        </mxCell>
        <mxCell id="nonpeered_spoke14_subnet_0_nsg" style="shape=image;html=1;image=img/lib/azure2/networking/Network_Security_Groups.svg;" vertex="1" parent="nonpeered_spoke14">
          <mxGeometry x="317" y="57" width="16" height="16" as="geometry"/>
        </mxCell>
        <mxCell id="nonpeered_spoke15_group" value="" style="group" vertex="1" connectable="0" parent="1">
          <mxGeometry x="1370" y="1955" width="400" height="105" as="geometry"/>
        </mxCell>
        <mxCell id="nonpeered_spoke15" style="shape=rectangle;rounded=0;whiteSpace=wrap;html=1;strokeColor=gray;fontColor=gray;fillColor=#f5f5f5;verticalAlign=top;align=left" vertex="1" parent="nonpeered_spoke15_group" value="Subscription: Unpeered16-Subscription&#10;unpeered16-vnet&#10;10.66.0.0/16">
          <mxGeometry x="0" y="0" width="400" height="85" as="geometry"/>
        </mxCell>
        <mxCell id="nonpeered_spoke15_image" style="shape=image;html=1;image=img/lib/azure2/networking/Virtual_Networks.svg;" vertex="1" parent="nonpeered_spoke15">
          <mxGeometry x="374" y="3.39" width="20" height="20" as="geometry"/>
        </mxCell>
        <mxCell id="nonpeered_spoke15_subnet_0" style="shape=rectangle;rounded=0;whiteSpace=wrap;html=1;strokeColor=#C8C6C4;fontColor=#323130;fillColor=#FAF9F8;align=left" vertex="1" parent="nonpeered_spoke15" value="third-party 10.66.1.0/24">
          <mxGeometry x="25" y="55" width="350" height="20" as="geometry"/>
        </mxCell>
        <mxCell id="nonpeered_spoke15_subnet_0_icon" style="shape=image;html=1;image=img/lib/azure2/networking/Subnet.svg;" vertex="1" parent="nonpeered_spoke15">
          <mxGeometry x="355" y="58" width="20" height="12" as="geometry"/>
        </mxCell>
        <mxCell id="nonpeered_spoke16_group" value="" style="group" vertex="1" connectable="0" parent="1">
          <mxGeometry x="1820" y="1955" width="400" height="135" as="geometry"/>
        </mxCell>
        <mxCell id="nonpeered_spoke16" style="shape=rectangle;rounded=0;whiteSpace=wrap;html=1;strokeColor=gray;fontColor=gray;fillColor=#f5f5f5;verticalAlign=top;align=left" vertex="1" parent="nonpeered_spoke16_group" value="Subscription: Unpeered17-Subscription&#10;unpeered17-vnet&#10;10.67.0.0/16">
          <mxGeometry x="0" y="0" width="400" height="115" as="geometry"/>
        </mxCell>
        <mxCell id="nonpeered_spoke16_image" style="shape=image;html=1;image=img/lib/azure2/networking/Virtual_Networks.svg;" vertex="1" parent="nonpeered_spoke16">
          <mxGeometry x="374" y="3.39" width="20" height="20" as="geometry"/>
        </mxCell>
        <mxCell id="nonpeered_spoke16_subnet_0" style="shape=rectangle;rounded=0;whiteSpace=wrap;html=1;strokeColor=#C8C6C4;fontColor=#323130;fillColor=#FAF9F8;align=left" vertex="1" parent="nonpeered_spoke16" value="partner-integration 10.67.1.0/24">
          <mxGeometry x="25" y="55" width="350" height="20" as="geometry"/>
        </mxCell>
        <mxCell id="nonpeered_spoke16_subnet_0_icon" style="shape=image;html=1;image=img/lib/azure2/networking/Subnet.svg;" vertex="1" parent="nonpeered_spoke16">
          <mxGeometry x="355" y="58" width="20" height="12" as="geometry"/>
        </mxCell>
        <mxCell id="nonpeered_spoke16_subnet_0_nsg" style="shape=image;html=1;image=img/lib/azure2/networking/Network_Security_Groups.svg;" vertex="1" parent="nonpeered_spoke16">
          <mxGeometry x="336" y="57" width="16" height="16" as="geometry"/>
        </mxCell>
        <mxCell id="nonpeered_spoke16_subnet_1" style="shape=rectangle;rounded=0;whiteSpace=wrap;html=1;strokeColor=#C8C6C4;fontColor=#323130;fillColor=#FAF9F8;align=left" vertex="1" parent="nonpeered_spoke16" value="api-gateway 10.67.2.0/24">
          <mxGeometry x="25" y="85" width="350" height="20" as="geometry"/>
        </mxCell>
        <mxCell id="nonpeered_spoke16_subnet_1_icon" style="shape=image;html=1;image=img/lib/azure2/networking/Subnet.svg;" vertex="1" parent="nonpeered_spoke16">
          <mxGeometry x="355" y="88" width="20" height="12" as="geometry"/>
        </mxCell>
        <mxCell id="nonpeered_spoke16_subnet_1_udr" style="shape=image;html=1;image=img/lib/azure2/networking/Route_Tables.svg;" vertex="1" parent="nonpeered_spoke16">
          <mxGeometry x="336" y="87" width="16" height="16" as="geometry"/>
        </mxCell>
        <mxCell id="nonpeered_spoke16_subnet_1_nsg" style="shape=image;html=1;image=img/lib/azure2/networking/Network_Security_Groups.svg;" vertex="1" parent="nonpeered_spoke16">
          <mxGeometry x="317" y="87" width="16" height="16" as="geometry"/>
        </mxCell>
        <mxCell id="nonpeered_spoke17_group" value="" style="group" vertex="1" connectable="0" parent="1">
          <mxGeometry x="2270" y="1955" width="400" height="105" as="geometry"/>
        </mxCell>
        <mxCell id="nonpeered_spoke17" style="shape=rectangle;rounded=0;whiteSpace=wrap;html=1;strokeColor=gray;fontColor=gray;fillColor=#f5f5f5;verticalAlign=top;align=left" vertex="1" parent="nonpeered_spoke17_group" value="Subscription: Unpeered18-Subscription&#10;unpeered18-vnet&#10;10.68.0.0/16">
          <mxGeometry x="0" y="0" width="400" height="85" as="geometry"/>
        </mxCell>
        <mxCell id="nonpeered_spoke17_image" style="shape=image;html=1;image=img/lib/azure2/networking/Virtual_Networks.svg;" vertex="1" parent="nonpeered_spoke17">
          <mxGeometry x="374" y="3.39" width="20" height="20" as="geometry"/>
        </mxCell>
        <mxCell id="nonpeered_spoke17_subnet_0" style="shape=rectangle;rounded=0;whiteSpace=wrap;html=1;strokeColor=#C8C6C4;fontColor=#323130;fillColor=#FAF9F8;align=left" vertex="1" parent="nonpeered_spoke17" value="customer-demo 10.68.1.0/24">
          <mxGeometry x="25" y="55" width="350" height="20" as="geometry"/>
        </mxCell>
        <mxCell id="nonpeered_spoke17_subnet_0_icon" style="shape=image;html=1;image=img/lib/azure2/networking/Subnet.svg;" vertex="1" parent="nonpeered_spoke17">
          <mxGeometry x="355" y="58" width="20" height="12" as="geometry"/>
        </mxCell>
        <mxCell id="nonpeered_spoke17_subnet_0_udr" style="shape=image;html=1;image=img/lib/azure2/networking/Route_Tables.svg;" vertex="1" parent="nonpeered_spoke17">
          <mxGeometry x="336" y="57" width="16" height="16" as="geometry"/>
        </mxCell>
        <mxCell id="nonpeered_spoke17_subnet_0_nsg" style="shape=image;html=1;image=img/lib/azure2/networking/Network_Security_Groups.svg;" vertex="1" parent="nonpeered_spoke17">
          <mxGeometry x="317" y="57" width="16" height="16" as="geometry"/>
        </mxCell>
        <mxCell id="nonpeered_spoke18_group" value="" style="group" vertex="1" connectable="0" parent="1">
          <mxGeometry x="20" y="2075" width="400" height="135" as="geometry"/>
        </mxCell>
        <mxCell id="nonpeered_spoke18" style="shape=rectangle;rounded=0;whiteSpace=wrap;html=1;strokeColor=gray;fontColor=gray;fillColor=#f5f5f5;verticalAlign=top;align=left" vertex="1" parent="nonpeered_spoke18_group" value="Subscription: Unpeered19-Subscription&#10;unpeered19-vnet&#10;10.69.0.0/16">
          <mxGeometry x="0" y="0" width="400" height="115" as="geometry"/>
        </mxCell>
        <mxCell id="nonpeered_spoke18_image" style="shape=image;html=1;image=img/lib/azure2/networking/Virtual_Networks.svg;" vertex="1" parent="nonpeered_spoke18">
          <mxGeometry x="374" y="3.39" width="20" height="20" as="geometry"/>
        </mxCell>
        <mxCell id="nonpeered_spoke18_subnet_0" style="shape=rectangle;rounded=0;whiteSpace=wrap;html=1;strokeColor=#C8C6C4;fontColor=#323130;fillColor=#FAF9F8;align=left" vertex="1" parent="nonpeered_spoke18" value="training-lab 10.69.1.0/24">
          <mxGeometry x="25" y="55" width="350" height="20" as="geometry"/>
        </mxCell>
        <mxCell id="nonpeered_spoke18_subnet_0_icon" style="shape=image;html=1;image=img/lib/azure2/networking/Subnet.svg;" vertex="1" parent="nonpeered_spoke18">
          <mxGeometry x="355" y="58" width="20" height="12" as="geometry"/>
        </mxCell>
        <mxCell id="nonpeered_spoke18_subnet_1" style="shape=rectangle;rounded=0;whiteSpace=wrap;html=1;strokeColor=#C8C6C4;fontColor=#323130;fillColor=#FAF9F8;align=left" vertex="1" parent="nonpeered_spoke18" value="certification 10.69.2.0/24">
          <mxGeometry x="25" y="85" width="350" height="20" as="geometry"/>
        </mxCell>
        <mxCell id="nonpeered_spoke18_subnet_1_icon" style="shape=image;html=1;image=img/lib/azure2/networking/Subnet.svg;" vertex="1" parent="nonpeered_spoke18">
          <mxGeometry x="355" y="88" width="20" height="12" as="geometry"/>
        </mxCell>
        <mxCell id="nonpeered_spoke18_subnet_1_nsg" style="shape=image;html=1;image=img/lib/azure2/networking/Network_Security_Groups.svg;" vertex="1" parent="nonpeered_spoke18">
          <mxGeometry x="336" y="87" width="16" height="16" as="geometry"/>
        </mxCell>
        <mxCell id="peering_edge_1000" edge="1" source="left_spoke0_0" target="left_spoke0_1" style="edgeStyle=orthogonalEdgeStyle;rounded=1;strokeColor=#0078D4;strokeWidth=2;endArrow=block;startArrow=block;" parent="1">
          <mxGeometry relative="1" as="geometry"/>
        </mxCell>
        <mxCell id="peering_edge_1001" edge="1" source="left_spoke0_1" target="left_spoke0_0" style="edgeStyle=orthogonalEdgeStyle;rounded=1;strokeColor=#0078D4;strokeWidth=2;endArrow=block;startArrow=block;" parent="1">
          <mxGeometry relative="1" as="geometry"/>
        </mxCell>
        <mxCell id="peering_edge_1002" edge="1" source="left_spoke0_2" target="left_spoke0_3" style="edgeStyle=orthogonalEdgeStyle;rounded=1;strokeColor=#0078D4;strokeWidth=2;endArrow=block;startArrow=block;" parent="1">
          <mxGeometry relative="1" as="geometry"/>
        </mxCell>
        <mxCell id="peering_edge_1003" edge="1" source="left_spoke0_3" target="left_spoke0_2" style="edgeStyle=orthogonalEdgeStyle;rounded=1;strokeColor=#0078D4;strokeWidth=2;endArrow=block;startArrow=block;" parent="1">
          <mxGeometry relative="1" as="geometry"/>
        </mxCell>
        <mxCell id="peering_edge_1004" edge="1" source="left_spoke0_9" target="right_spoke0_2" style="edgeStyle=orthogonalEdgeStyle;rounded=1;strokeColor=#0078D4;strokeWidth=2;endArrow=block;startArrow=block;" parent="1">
          <mxGeometry relative="1" as="geometry"/>
        </mxCell>
        <mxCell id="peering_edge_1005" edge="1" source="left_spoke0_9" target="right_spoke0_8" style="edgeStyle=orthogonalEdgeStyle;rounded=1;strokeColor=#0078D4;strokeWidth=2;endArrow=block;startArrow=block;" parent="1">
          <mxGeometry relative="1" as="geometry"/>
        </mxCell>
        <mxCell id="peering_edge_1006" edge="1" source="right_spoke0_2" target="left_spoke0_9" style="edgeStyle=orthogonalEdgeStyle;rounded=1;strokeColor=#0078D4;strokeWidth=2;endArrow=block;startArrow=block;" parent="1">
          <mxGeometry relative="1" as="geometry"/>
        </mxCell>
        <mxCell id="peering_edge_1007" edge="1" source="right_spoke0_8" target="left_spoke0_9" style="edgeStyle=orthogonalEdgeStyle;rounded=1;strokeColor=#0078D4;strokeWidth=2;endArrow=block;startArrow=block;" parent="1">
          <mxGeometry relative="1" as="geometry"/>
        </mxCell>
        <mxCell id="peering_edge_1008" edge="1" source="left_spoke1_0" target="left_spoke1_1" style="edgeStyle=orthogonalEdgeStyle;rounded=1;strokeColor=#0078D4;strokeWidth=2;endArrow=block;startArrow=block;" parent="1">
          <mxGeometry relative="1" as="geometry"/>
        </mxCell>
        <mxCell id="peering_edge_1009" edge="1" source="left_spoke1_1" target="left_spoke1_0" style="edgeStyle=orthogonalEdgeStyle;rounded=1;strokeColor=#0078D4;strokeWidth=2;endArrow=block;startArrow=block;" parent="1">
          <mxGeometry relative="1" as="geometry"/>
        </mxCell>
        <mxCell id="peering_edge_1010" edge="1" source="left_spoke1_1" target="right_spoke1_3" style="edgeStyle=orthogonalEdgeStyle;rounded=1;strokeColor=#0078D4;strokeWidth=2;endArrow=block;startArrow=block;" parent="1">
          <mxGeometry relative="1" as="geometry"/>
        </mxCell>
        <mxCell id="peering_edge_1011" edge="1" source="left_spoke1_2" target="left_spoke1_3" style="edgeStyle=orthogonalEdgeStyle;rounded=1;strokeColor=#0078D4;strokeWidth=2;endArrow=block;startArrow=block;" parent="1">
          <mxGeometry relative="1" as="geometry"/>
        </mxCell>
        <mxCell id="peering_edge_1012" edge="1" source="left_spoke1_3" target="left_spoke1_2" style="edgeStyle=orthogonalEdgeStyle;rounded=1;strokeColor=#0078D4;strokeWidth=2;endArrow=block;startArrow=block;" parent="1">
          <mxGeometry relative="1" as="geometry"/>
        </mxCell>
        <mxCell id="peering_edge_1013" edge="1" source="left_spoke1_5" target="right_spoke1_3" style="edgeStyle=orthogonalEdgeStyle;rounded=1;strokeColor=#0078D4;strokeWidth=2;endArrow=block;startArrow=block;" parent="1">
          <mxGeometry relative="1" as="geometry"/>
        </mxCell>
        <mxCell id="peering_edge_1014" edge="1" source="right_spoke1_3" target="left_spoke1_1" style="edgeStyle=orthogonalEdgeStyle;rounded=1;strokeColor=#0078D4;strokeWidth=2;endArrow=block;startArrow=block;" parent="1">
          <mxGeometry relative="1" as="geometry"/>
        </mxCell>
        <mxCell id="peering_edge_1015" edge="1" source="right_spoke1_3" target="left_spoke1_5" style="edgeStyle=orthogonalEdgeStyle;rounded=1;strokeColor=#0078D4;strokeWidth=2;endArrow=block;startArrow=block;" parent="1">
          <mxGeometry relative="1" as="geometry"/>
        </mxCell>
      </root>
    </mxGraphModel>
  </diagram>
</mxfile>
